o convex_0
v -0.003819 -0.008091 0.007255
v -0.005040 -0.008703 -0.007301
v -0.005040 -0.000051 -0.007301
v -0.005040 -0.008703 0.007255
v -0.005040 -0.000051 0.007255
v -0.003819 -0.002697 -0.007301
v -0.003819 -0.008091 -0.007301
v -0.003819 -0.002697 0.007255
v -0.004735 -0.000051 0.007255
v -0.004735 -0.000051 -0.007301
v -0.004837 -0.008703 0.007255
v -0.004633 -0.008599 -0.007301
v -0.003921 -0.008193 0.007255
v -0.003921 -0.008193 -0.007301
v -0.004837 -0.008703 -0.007301
v -0.004633 -0.008599 0.007255
f 12 13 16 
f 3 2 4 
f 4 1 5 
f 3 4 5 
f 2 3 6 
f 6 1 7 
f 2 6 7 
f 5 1 8 
f 1 6 8 
f 8 6 9 
f 3 5 9 
f 5 8 9 
f 6 3 10 
f 9 6 10 
f 3 9 10 
f 4 2 11 
f 1 4 11 
f 2 7 12 
f 7 1 13 
f 1 11 13 
f 7 13 14 
f 12 7 14 
f 13 12 14 
f 11 2 15 
f 2 12 15 
f 12 11 15 
f 11 12 16 
f 13 11 16 
o convex_1
v -0.001987 -0.006769 0.007255
v -0.003819 -0.007990 -0.007301
v -0.003819 -0.002901 -0.007301
v -0.001987 -0.004224 -0.007301
v -0.003819 -0.002901 0.007255
v -0.003819 -0.007990 0.007255
v -0.001987 -0.007074 -0.007301
v -0.001987 -0.004224 0.007255
v -0.001987 -0.007074 0.007255
v -0.003615 -0.007990 -0.007301
v -0.003717 -0.002901 -0.007301
v -0.003412 -0.007888 0.007255
v -0.003717 -0.002901 0.007255
v -0.003615 -0.007990 0.007255
v -0.003412 -0.007888 -0.007301
v -0.001987 -0.006667 -0.007301
f 17 23 32 
f 18 19 20 
f 19 18 21 
f 17 21 22 
f 21 18 22 
f 18 20 23 
f 17 20 24 
f 21 17 24 
f 17 22 25 
f 23 17 25 
f 22 18 26 
f 18 23 26 
f 20 19 27 
f 19 21 27 
f 24 20 27 
f 25 22 28 
f 23 25 28 
f 21 24 29 
f 27 21 29 
f 24 27 29 
f 22 26 30 
f 28 22 30 
f 26 28 30 
f 26 23 31 
f 23 28 31 
f 28 26 31 
f 20 17 32 
f 23 20 32 
o convex_2
v -0.004023 0.002596 0.007255
v -0.005041 -0.000051 -0.007301
v -0.004735 -0.000051 -0.007301
v -0.005041 -0.000051 0.007255
v -0.005041 0.002596 -0.007301
v -0.005041 0.002596 0.007255
v -0.004023 0.002596 -0.007301
v -0.004735 -0.000051 0.007255
v -0.004023 0.002392 -0.007301
v -0.004023 0.002392 0.007255
f 41 33 42 
f 34 35 36 
f 35 34 37 
f 34 36 37 
f 36 33 38 
f 33 37 38 
f 37 36 38 
f 37 33 39 
f 35 37 39 
f 36 35 40 
f 33 36 40 
f 39 33 41 
f 35 39 41 
f 40 35 41 
f 40 41 42 
f 33 40 42 
o convex_3
v -0.003921 0.008193 0.007255
v -0.004939 0.002596 -0.007301
v -0.005040 0.002596 -0.007301
v -0.004837 0.008703 -0.007301
v -0.001987 0.004225 -0.007301
v -0.005040 0.002596 0.007255
v -0.001987 0.007074 0.007255
v -0.001987 0.004225 0.007255
v -0.001987 0.007074 -0.007301
v -0.005040 0.008703 0.007255
v -0.003921 0.002596 0.007255
v -0.003921 0.002596 -0.007301
v -0.005040 0.008703 -0.007301
v -0.004837 0.008703 0.007255
v -0.004633 0.008600 -0.007301
v -0.004633 0.008600 0.007255
v -0.003921 0.008193 -0.007301
v -0.004939 0.002596 0.007255
f 53 48 60 
f 44 45 46 
f 44 46 47 
f 45 44 48 
f 43 48 49 
f 47 49 50 
f 49 48 50 
f 47 46 51 
f 43 49 51 
f 49 47 51 
f 45 48 52 
f 48 43 52 
f 47 50 53 
f 50 48 53 
f 44 47 54 
f 53 44 54 
f 47 53 54 
f 46 45 55 
f 45 52 55 
f 52 46 55 
f 46 52 56 
f 52 43 56 
f 51 46 57 
f 46 56 57 
f 57 56 58 
f 56 43 58 
f 43 57 58 
f 43 51 59 
f 57 43 59 
f 51 57 59 
f 48 44 60 
f 44 53 60 
o convex_4
v 0.003306 -0.004020 -0.007301
v 0.010024 0.000050 0.007255
v 0.004732 0.000050 0.007255
v 0.002594 -0.004325 0.007255
v 0.004732 0.000050 -0.007301
v 0.010024 -0.000051 -0.007301
v 0.002594 -0.003918 -0.007301
v 0.009820 -0.000255 0.007255
v 0.002594 -0.003918 0.007255
v 0.003306 -0.004020 0.007255
v 0.009820 -0.000255 -0.007301
v 0.010024 0.000050 -0.007301
v 0.002696 -0.004325 -0.007301
v 0.005953 -0.002494 -0.007301
v 0.002594 -0.004325 -0.007301
v 0.002696 -0.004325 0.007255
v 0.005953 -0.002494 0.007255
v 0.010024 -0.000051 0.007255
f 68 66 78 
f 62 63 64 
f 63 62 65 
f 61 65 66 
f 65 61 67 
f 63 65 67 
f 62 64 68 
f 64 63 69 
f 63 67 69 
f 67 64 69 
f 68 64 70 
f 61 66 71 
f 66 68 71 
f 65 62 72 
f 62 66 72 
f 66 65 72 
f 67 61 73 
f 61 70 73 
f 70 61 74 
f 61 71 74 
f 71 68 74 
f 64 67 75 
f 73 64 75 
f 67 73 75 
f 70 64 76 
f 64 73 76 
f 73 70 76 
f 68 70 77 
f 70 74 77 
f 74 68 77 
f 66 62 78 
f 62 68 78 
o convex_5
v 0.002593 0.004326 -0.007301
v 0.009922 0.000153 0.007255
v 0.009820 0.000255 0.007255
v 0.004731 0.000051 0.007255
v 0.009922 0.000051 -0.007301
v 0.002593 0.004326 0.007255
v 0.004731 0.000051 -0.007301
v 0.002593 0.003919 0.007255
v 0.003306 0.004020 -0.007301
v 0.009820 0.000255 -0.007301
v 0.002593 0.003919 -0.007301
v 0.003306 0.004020 0.007255
v 0.009922 0.000051 0.007255
v 0.002696 0.004326 -0.007301
v 0.005953 0.002493 0.007255
v 0.002696 0.004326 0.007255
v 0.005953 0.002493 -0.007301
v 0.009922 0.000153 -0.007301
f 83 88 96 
f 80 81 82 
f 82 81 84 
f 79 83 85 
f 83 82 85 
f 84 79 86 
f 82 84 86 
f 85 82 86 
f 83 79 87 
f 81 80 88 
f 83 87 88 
f 79 85 89 
f 86 79 89 
f 85 86 89 
f 84 81 90 
f 80 82 91 
f 82 83 91 
f 83 80 91 
f 79 84 92 
f 87 79 92 
f 90 87 92 
f 81 88 93 
f 90 81 93 
f 87 90 93 
f 84 90 94 
f 92 84 94 
f 90 92 94 
f 88 87 95 
f 93 88 95 
f 87 93 95 
f 80 83 96 
f 88 80 96 
o convex_6
v 0.000252 -0.005751 0.007255
v -0.001987 -0.006972 -0.007301
v -0.001987 -0.004326 -0.007301
v 0.000354 -0.004733 -0.007301
v -0.001987 -0.004326 0.007255
v -0.001987 -0.006972 0.007255
v 0.000354 -0.004733 0.007255
v 0.000354 -0.005649 -0.007301
v -0.001274 -0.006667 -0.007301
v -0.001274 -0.006667 0.007255
v -0.001783 -0.004326 0.007255
v -0.000053 -0.005954 -0.007301
v 0.000354 -0.005649 0.007255
v -0.001783 -0.004326 -0.007301
v -0.001885 -0.006972 0.007255
v -0.001885 -0.006972 -0.007301
v -0.000053 -0.005954 0.007255
v 0.000252 -0.005751 -0.007301
f 108 104 114 
f 98 99 100 
f 99 98 101 
f 97 101 102 
f 101 98 102 
f 101 97 103 
f 98 100 104 
f 100 103 104 
f 98 104 105 
f 97 102 106 
f 99 101 107 
f 103 100 107 
f 101 103 107 
f 105 104 108 
f 106 105 108 
f 103 97 109 
f 97 104 109 
f 104 103 109 
f 100 99 110 
f 99 107 110 
f 107 100 110 
f 102 98 111 
f 106 102 111 
f 105 106 111 
f 98 105 112 
f 111 98 112 
f 105 111 112 
f 97 106 113 
f 108 97 113 
f 106 108 113 
f 104 97 114 
f 97 108 114 
o convex_7
v 0.000456 -0.005649 -0.007301
v 0.002593 -0.004021 0.007255
v 0.002390 -0.004021 0.007255
v 0.002390 -0.004021 -0.007301
v 0.000354 -0.004733 0.007255
v 0.000456 -0.005649 0.007255
v 0.002593 -0.004428 -0.007301
v 0.000354 -0.004733 -0.007301
v 0.002593 -0.004428 0.007255
v 0.000354 -0.005649 0.007255
v 0.000354 -0.005649 -0.007301
v 0.002593 -0.004021 -0.007301
v 0.000660 -0.005547 -0.007301
v 0.000660 -0.005547 0.007255
f 120 127 128 
f 117 116 118 
f 116 117 119 
f 117 118 119 
f 116 119 120 
f 115 118 121 
f 118 115 122 
f 119 118 122 
f 116 120 123 
f 121 116 123 
f 115 120 124 
f 120 119 124 
f 119 122 124 
f 124 122 125 
f 122 115 125 
f 115 124 125 
f 118 116 126 
f 116 121 126 
f 121 118 126 
f 120 115 127 
f 115 121 127 
f 121 123 127 
f 127 123 128 
f 123 120 128 
o convex_8
v 0.000252 0.005751 0.007255
v -0.001987 0.004326 -0.007301
v -0.001987 0.006972 -0.007301
v 0.000354 0.004733 -0.007301
v -0.001987 0.004326 0.007255
v -0.001987 0.006972 0.007255
v 0.000354 0.004733 0.007255
v 0.000354 0.005649 -0.007301
v -0.001274 0.006667 -0.007301
v -0.001274 0.006667 0.007255
v -0.001783 0.004326 -0.007301
v -0.000053 0.005954 -0.007301
v 0.000354 0.005649 0.007255
v -0.001783 0.004326 0.007255
v -0.001885 0.006972 0.007255
v -0.001885 0.006972 -0.007301
v -0.000053 0.005954 0.007255
v 0.000252 0.005751 -0.007301
f 136 140 146 
f 130 131 132 
f 131 130 133 
f 133 129 134 
f 131 133 134 
f 129 133 135 
f 132 131 136 
f 135 132 136 
f 136 131 137 
f 134 129 138 
f 130 132 139 
f 133 130 139 
f 132 135 139 
f 136 137 140 
f 137 138 140 
f 129 135 141 
f 136 129 141 
f 135 136 141 
f 135 133 142 
f 133 139 142 
f 139 135 142 
f 131 134 143 
f 134 138 143 
f 138 137 143 
f 137 131 144 
f 131 143 144 
f 143 137 144 
f 138 129 145 
f 129 140 145 
f 140 138 145 
f 129 136 146 
f 140 129 146 
o convex_9
v 0.000354 0.005649 -0.007301
v 0.002593 0.004428 0.007255
v 0.002593 0.004021 0.007255
v 0.002593 0.004428 -0.007301
v 0.000354 0.004733 0.007255
v 0.000354 0.004733 -0.007301
v 0.000456 0.005649 0.007255
v 0.002390 0.004021 -0.007301
v 0.000660 0.005547 -0.007301
v 0.002390 0.004021 0.007255
v 0.000354 0.005649 0.007255
v 0.002593 0.004021 -0.007301
v 0.000660 0.005547 0.007255
v 0.000456 0.005649 -0.007301
f 153 155 160 
f 148 149 150 
f 149 148 151 
f 147 150 152 
f 151 147 152 
f 151 148 153 
f 151 152 154 
f 152 150 154 
f 148 150 155 
f 150 147 155 
f 149 151 156 
f 154 149 156 
f 151 154 156 
f 147 151 157 
f 153 147 157 
f 151 153 157 
f 150 149 158 
f 149 154 158 
f 154 150 158 
f 153 148 159 
f 148 155 159 
f 155 153 159 
f 147 153 160 
f 155 147 160 
