# Generated from ../triangular_block.scad; do not edit by hand.
o triangular_block
v 0.00999451 0 -0.00724983
v 0.00475883 -0.00062561 -0.00724983
v 0.00479984 0 -0.00724983
v 0.00463581 -0.00124168 -0.00724983
v 0.00443459 -0.00183678 -0.00724983
v 0.00415611 -0.00239944 -0.00724983
v 0.00380802 -0.0029211 -0.00724983
v 0.00339317 -0.00339317 -0.00724983
v 0.0029211 -0.00380802 -0.00724983
v 0.00239944 -0.00415611 -0.00724983
v -0.00475883 -0.00062561 -0.00724983
v -0.00498962 -0.00865173 -0.00724983
v -0.00479984 0 -0.00724983
v -0.00463581 -0.00124168 -0.00724983
v -0.00443459 -0.00183678 -0.00724983
v -0.00415611 -0.00239944 -0.00724983
v -0.00380802 -0.0029211 -0.00724983
v -0.00339317 -0.00339317 -0.00724983
v -0.0029211 -0.00380802 -0.00724983
v -0.00239944 -0.00415611 -0.00724983
v -0.00183678 -0.00443459 -0.00724983
v -0.00124168 -0.00463581 -0.00724983
v -0.00062561 -0.00475883 -0.00724983
v 0 -0.00479984 -0.00724983
v 0.00062561 -0.00475883 -0.00724983
v 0.00124168 -0.00463581 -0.00724983
v 0.00183678 -0.00443459 -0.00724983
v 0.00475883 0.00062561 -0.00724983
v 0.00463581 0.00124168 -0.00724983
v 0.00443459 0.00183678 -0.00724983
v 0.00415611 0.00239944 -0.00724983
v 0.00380802 0.0029211 -0.00724983
v 0.00339317 0.00339317 -0.00724983
v 0.0029211 0.00380802 -0.00724983
v 0.00239944 0.00415611 -0.00724983
v -0.00498962 0.00865173 -0.00724983
v 0.00183678 0.00443459 -0.00724983
v 0.00124168 0.00463581 -0.00724983
v 0.00062561 0.00475883 -0.00724983
v 0 0.00479984 -0.00724983
v -0.00062561 0.00475883 -0.00724983
v -0.00124168 0.00463581 -0.00724983
v -0.00183678 0.00443459 -0.00724983
v -0.00239944 0.00415611 -0.00724983
v -0.0029211 0.00380802 -0.00724983
v -0.00339317 0.00339317 -0.00724983
v -0.00380802 0.0029211 -0.00724983
v -0.00415611 0.00239944 -0.00724983
v -0.00443459 0.00183678 -0.00724983
v -0.00463581 0.00124168 -0.00724983
v -0.00475883 0.00062561 -0.00724983
v -0.00498962 0.00865173 0.00724983
v -0.00498962 -0.00865173 0.00724983
v 0.00999451 0 0.00724983
v 0.00475883 0.00062561 0.00724983
v 0.00479984 0 0.00724983
v 0.00463581 0.00124168 0.00724983
v 0.00443459 0.00183678 0.00724983
v 0.00415611 0.00239944 0.00724983
v 0.00380802 0.0029211 0.00724983
v 0.00339317 0.00339317 0.00724983
v 0.0029211 0.00380802 0.00724983
v 0.00239944 0.00415611 0.00724983
v -0.00475883 0.00062561 0.00724983
v -0.00479984 0 0.00724983
v -0.00463581 0.00124168 0.00724983
v -0.00443459 0.00183678 0.00724983
v -0.00415611 0.00239944 0.00724983
v -0.00380802 0.0029211 0.00724983
v -0.00339317 0.00339317 0.00724983
v -0.0029211 0.00380802 0.00724983
v -0.00239944 0.00415611 0.00724983
v -0.00183678 0.00443459 0.00724983
v -0.00124168 0.00463581 0.00724983
v -0.00062561 0.00475883 0.00724983
v 0 0.00479984 0.00724983
v 0.00062561 0.00475883 0.00724983
v 0.00124168 0.00463581 0.00724983
v 0.00183678 0.00443459 0.00724983
v 0.00475883 -0.00062561 0.00724983
v 0.00463581 -0.00124168 0.00724983
v 0.00443459 -0.00183678 0.00724983
v 0.00415611 -0.00239944 0.00724983
v 0.00380802 -0.0029211 0.00724983
v 0.00339317 -0.00339317 0.00724983
v 0.0029211 -0.00380802 0.00724983
v 0.00239944 -0.00415611 0.00724983
v 0.00183678 -0.00443459 0.00724983
v 0.00124168 -0.00463581 0.00724983
v 0.00062561 -0.00475883 0.00724983
v 0 -0.00479984 0.00724983
v -0.00062561 -0.00475883 0.00724983
v -0.00124168 -0.00463581 0.00724983
v -0.00183678 -0.00443459 0.00724983
v -0.00239944 -0.00415611 0.00724983
v -0.0029211 -0.00380802 0.00724983
v -0.00339317 -0.00339317 0.00724983
v -0.00380802 -0.0029211 0.00724983
v -0.00415611 -0.00239944 0.00724983
v -0.00443459 -0.00183678 0.00724983
v -0.00463581 -0.00124168 0.00724983
v -0.00475883 -0.00062561 0.00724983
f 1 2 3
f 1 4 2
f 1 5 4
f 1 6 5
f 1 7 6
f 1 8 7
f 1 9 8
f 1 10 9
f 11 12 13
f 14 12 11
f 15 12 14
f 16 12 15
f 17 12 16
f 18 12 17
f 19 12 18
f 20 12 19
f 21 12 20
f 22 12 21
f 23 12 22
f 24 12 23
f 25 12 24
f 26 12 25
f 27 12 26
f 10 12 27
f 12 10 1
f 28 1 3
f 29 1 28
f 30 1 29
f 31 1 30
f 32 1 31
f 33 1 32
f 34 1 33
f 35 1 34
f 35 36 1
f 37 36 35
f 38 36 37
f 39 36 38
f 40 36 39
f 41 36 40
f 42 36 41
f 43 36 42
f 44 36 43
f 45 36 44
f 46 36 45
f 47 36 46
f 48 36 47
f 49 36 48
f 50 36 49
f 51 36 50
f 13 36 51
f 36 13 12
f 12 52 36
f 52 12 53
f 12 54 53
f 54 12 1
f 54 55 56
f 54 57 55
f 54 58 57
f 54 59 58
f 54 60 59
f 54 61 60
f 54 62 61
f 54 63 62
f 64 52 65
f 66 52 64
f 67 52 66
f 68 52 67
f 69 52 68
f 70 52 69
f 71 52 70
f 72 52 71
f 73 52 72
f 74 52 73
f 75 52 74
f 76 52 75
f 77 52 76
f 78 52 77
f 79 52 78
f 63 52 79
f 52 63 54
f 80 54 56
f 81 54 80
f 82 54 81
f 83 54 82
f 84 54 83
f 85 54 84
f 86 54 85
f 87 54 86
f 87 53 54
f 88 53 87
f 89 53 88
f 90 53 89
f 91 53 90
f 92 53 91
f 93 53 92
f 94 53 93
f 95 53 94
f 96 53 95
f 97 53 96
f 98 53 97
f 99 53 98
f 100 53 99
f 101 53 100
f 102 53 101
f 65 53 102
f 53 65 52
f 1 52 54
f 52 1 36
f 25 91 90
f 91 25 24
f 28 57 29
f 57 28 55
f 3 55 28
f 55 3 56
f 29 58 30
f 58 29 57
f 6 82 5
f 82 6 83
f 40 77 76
f 77 40 39
f 102 13 65
f 13 102 11
f 30 59 31
f 59 30 58
f 43 74 73
f 74 43 42
f 37 63 79
f 63 37 35
f 31 60 32
f 60 31 59
f 32 61 33
f 61 32 60
f 22 94 93
f 94 22 21
f 23 93 92
f 93 23 22
f 20 96 95
f 96 20 19
f 97 17 98
f 17 97 18
f 39 78 77
f 78 39 38
f 26 90 89
f 90 26 25
f 5 81 4
f 81 5 82
f 2 56 3
f 56 2 80
f 64 50 66
f 50 64 51
f 46 71 70
f 71 46 45
f 38 79 78
f 79 38 37
f 24 92 91
f 92 24 23
f 27 89 88
f 89 27 26
f 101 11 102
f 11 101 14
f 68 47 69
f 47 68 48
f 8 84 7
f 84 8 85
f 35 62 63
f 62 35 34
f 69 46 70
f 46 69 47
f 41 76 75
f 76 41 40
f 10 88 87
f 88 10 27
f 99 15 100
f 15 99 16
f 19 97 96
f 97 19 18
f 100 14 101
f 14 100 15
f 67 48 68
f 48 67 49
f 45 72 71
f 72 45 44
f 42 75 74
f 75 42 41
f 7 83 6
f 83 7 84
f 65 51 64
f 51 65 13
f 4 80 2
f 80 4 81
f 66 49 67
f 49 66 50
f 34 61 62
f 61 34 33
f 44 73 72
f 73 44 43
f 9 87 86
f 87 9 10
f 21 95 94
f 95 21 20
f 8 86 85
f 86 8 9
f 98 16 99
f 16 98 17
