# Torus ring (OD=15mm, ID=9mm, section=3mm)
o ring
v 0.007500 0.000000 0.000000
v 0.007410 0.000000 0.000513
v 0.007149 0.000000 0.000964
v 0.006750 0.000000 0.001299
v 0.006260 0.000000 0.001477
v 0.005740 0.000000 0.001477
v 0.005250 0.000000 0.001299
v 0.004851 0.000000 0.000964
v 0.004590 0.000000 0.000513
v 0.004500 0.000000 0.000000
v 0.004590 0.000000 -0.000513
v 0.004851 0.000000 -0.000964
v 0.005250 0.000000 -0.001299
v 0.005740 0.000000 -0.001477
v 0.006260 0.000000 -0.001477
v 0.006750 0.000000 -0.001299
v 0.007149 0.000000 -0.000964
v 0.007410 0.000000 -0.000513
v 0.007386 0.001302 0.000000
v 0.007297 0.001287 0.000513
v 0.007040 0.001241 0.000964
v 0.006647 0.001172 0.001299
v 0.006165 0.001087 0.001477
v 0.005652 0.000997 0.001477
v 0.005170 0.000912 0.001299
v 0.004777 0.000842 0.000964
v 0.004521 0.000797 0.000513
v 0.004432 0.000781 0.000000
v 0.004521 0.000797 -0.000513
v 0.004777 0.000842 -0.000964
v 0.005170 0.000912 -0.001299
v 0.005652 0.000997 -0.001477
v 0.006165 0.001087 -0.001477
v 0.006647 0.001172 -0.001299
v 0.007040 0.001241 -0.000964
v 0.007297 0.001287 -0.000513
v 0.007048 0.002565 0.000000
v 0.006963 0.002534 0.000513
v 0.006718 0.002445 0.000964
v 0.006343 0.002309 0.001299
v 0.005883 0.002141 0.001477
v 0.005393 0.001963 0.001477
v 0.004933 0.001796 0.001299
v 0.004558 0.001659 0.000964
v 0.004314 0.001570 0.000513
v 0.004229 0.001539 0.000000
v 0.004314 0.001570 -0.000513
v 0.004558 0.001659 -0.000964
v 0.004933 0.001796 -0.001299
v 0.005393 0.001963 -0.001477
v 0.005883 0.002141 -0.001477
v 0.006343 0.002309 -0.001299
v 0.006718 0.002445 -0.000964
v 0.006963 0.002534 -0.000513
v 0.006495 0.003750 0.000000
v 0.006417 0.003705 0.000513
v 0.006191 0.003575 0.000964
v 0.005846 0.003375 0.001299
v 0.005422 0.003130 0.001477
v 0.004971 0.002870 0.001477
v 0.004547 0.002625 0.001299
v 0.004201 0.002425 0.000964
v 0.003975 0.002295 0.000513
v 0.003897 0.002250 0.000000
v 0.003975 0.002295 -0.000513
v 0.004201 0.002425 -0.000964
v 0.004547 0.002625 -0.001299
v 0.004971 0.002870 -0.001477
v 0.005422 0.003130 -0.001477
v 0.005846 0.003375 -0.001299
v 0.006191 0.003575 -0.000964
v 0.006417 0.003705 -0.000513
v 0.005745 0.004821 0.000000
v 0.005676 0.004763 0.000513
v 0.005477 0.004595 0.000964
v 0.005171 0.004339 0.001299
v 0.004796 0.004024 0.001477
v 0.004397 0.003689 0.001477
v 0.004022 0.003375 0.001299
v 0.003716 0.003118 0.000964
v 0.003516 0.002951 0.000513
v 0.003447 0.002893 0.000000
v 0.003516 0.002951 -0.000513
v 0.003716 0.003118 -0.000964
v 0.004022 0.003375 -0.001299
v 0.004397 0.003689 -0.001477
v 0.004796 0.004024 -0.001477
v 0.005171 0.004339 -0.001299
v 0.005477 0.004595 -0.000964
v 0.005676 0.004763 -0.000513
v 0.004821 0.005745 0.000000
v 0.004763 0.005676 0.000513
v 0.004595 0.005477 0.000964
v 0.004339 0.005171 0.001299
v 0.004024 0.004796 0.001477
v 0.003689 0.004397 0.001477
v 0.003375 0.004022 0.001299
v 0.003118 0.003716 0.000964
v 0.002951 0.003516 0.000513
v 0.002893 0.003447 0.000000
v 0.002951 0.003516 -0.000513
v 0.003118 0.003716 -0.000964
v 0.003375 0.004022 -0.001299
v 0.003689 0.004397 -0.001477
v 0.004024 0.004796 -0.001477
v 0.004339 0.005171 -0.001299
v 0.004595 0.005477 -0.000964
v 0.004763 0.005676 -0.000513
v 0.003750 0.006495 0.000000
v 0.003705 0.006417 0.000513
v 0.003575 0.006191 0.000964
v 0.003375 0.005846 0.001299
v 0.003130 0.005422 0.001477
v 0.002870 0.004971 0.001477
v 0.002625 0.004547 0.001299
v 0.002425 0.004201 0.000964
v 0.002295 0.003975 0.000513
v 0.002250 0.003897 0.000000
v 0.002295 0.003975 -0.000513
v 0.002425 0.004201 -0.000964
v 0.002625 0.004547 -0.001299
v 0.002870 0.004971 -0.001477
v 0.003130 0.005422 -0.001477
v 0.003375 0.005846 -0.001299
v 0.003575 0.006191 -0.000964
v 0.003705 0.006417 -0.000513
v 0.002565 0.007048 0.000000
v 0.002534 0.006963 0.000513
v 0.002445 0.006718 0.000964
v 0.002309 0.006343 0.001299
v 0.002141 0.005883 0.001477
v 0.001963 0.005393 0.001477
v 0.001796 0.004933 0.001299
v 0.001659 0.004558 0.000964
v 0.001570 0.004314 0.000513
v 0.001539 0.004229 0.000000
v 0.001570 0.004314 -0.000513
v 0.001659 0.004558 -0.000964
v 0.001796 0.004933 -0.001299
v 0.001963 0.005393 -0.001477
v 0.002141 0.005883 -0.001477
v 0.002309 0.006343 -0.001299
v 0.002445 0.006718 -0.000964
v 0.002534 0.006963 -0.000513
v 0.001302 0.007386 0.000000
v 0.001287 0.007297 0.000513
v 0.001241 0.007040 0.000964
v 0.001172 0.006647 0.001299
v 0.001087 0.006165 0.001477
v 0.000997 0.005652 0.001477
v 0.000912 0.005170 0.001299
v 0.000842 0.004777 0.000964
v 0.000797 0.004521 0.000513
v 0.000781 0.004432 0.000000
v 0.000797 0.004521 -0.000513
v 0.000842 0.004777 -0.000964
v 0.000912 0.005170 -0.001299
v 0.000997 0.005652 -0.001477
v 0.001087 0.006165 -0.001477
v 0.001172 0.006647 -0.001299
v 0.001241 0.007040 -0.000964
v 0.001287 0.007297 -0.000513
v 0.000000 0.007500 0.000000
v 0.000000 0.007410 0.000513
v 0.000000 0.007149 0.000964
v 0.000000 0.006750 0.001299
v 0.000000 0.006260 0.001477
v 0.000000 0.005740 0.001477
v 0.000000 0.005250 0.001299
v 0.000000 0.004851 0.000964
v 0.000000 0.004590 0.000513
v 0.000000 0.004500 0.000000
v 0.000000 0.004590 -0.000513
v 0.000000 0.004851 -0.000964
v 0.000000 0.005250 -0.001299
v 0.000000 0.005740 -0.001477
v 0.000000 0.006260 -0.001477
v 0.000000 0.006750 -0.001299
v 0.000000 0.007149 -0.000964
v 0.000000 0.007410 -0.000513
v -0.001302 0.007386 0.000000
v -0.001287 0.007297 0.000513
v -0.001241 0.007040 0.000964
v -0.001172 0.006647 0.001299
v -0.001087 0.006165 0.001477
v -0.000997 0.005652 0.001477
v -0.000912 0.005170 0.001299
v -0.000842 0.004777 0.000964
v -0.000797 0.004521 0.000513
v -0.000781 0.004432 0.000000
v -0.000797 0.004521 -0.000513
v -0.000842 0.004777 -0.000964
v -0.000912 0.005170 -0.001299
v -0.000997 0.005652 -0.001477
v -0.001087 0.006165 -0.001477
v -0.001172 0.006647 -0.001299
v -0.001241 0.007040 -0.000964
v -0.001287 0.007297 -0.000513
v -0.002565 0.007048 0.000000
v -0.002534 0.006963 0.000513
v -0.002445 0.006718 0.000964
v -0.002309 0.006343 0.001299
v -0.002141 0.005883 0.001477
v -0.001963 0.005393 0.001477
v -0.001796 0.004933 0.001299
v -0.001659 0.004558 0.000964
v -0.001570 0.004314 0.000513
v -0.001539 0.004229 0.000000
v -0.001570 0.004314 -0.000513
v -0.001659 0.004558 -0.000964
v -0.001796 0.004933 -0.001299
v -0.001963 0.005393 -0.001477
v -0.002141 0.005883 -0.001477
v -0.002309 0.006343 -0.001299
v -0.002445 0.006718 -0.000964
v -0.002534 0.006963 -0.000513
v -0.003750 0.006495 0.000000
v -0.003705 0.006417 0.000513
v -0.003575 0.006191 0.000964
v -0.003375 0.005846 0.001299
v -0.003130 0.005422 0.001477
v -0.002870 0.004971 0.001477
v -0.002625 0.004547 0.001299
v -0.002425 0.004201 0.000964
v -0.002295 0.003975 0.000513
v -0.002250 0.003897 0.000000
v -0.002295 0.003975 -0.000513
v -0.002425 0.004201 -0.000964
v -0.002625 0.004547 -0.001299
v -0.002870 0.004971 -0.001477
v -0.003130 0.005422 -0.001477
v -0.003375 0.005846 -0.001299
v -0.003575 0.006191 -0.000964
v -0.003705 0.006417 -0.000513
v -0.004821 0.005745 0.000000
v -0.004763 0.005676 0.000513
v -0.004595 0.005477 0.000964
v -0.004339 0.005171 0.001299
v -0.004024 0.004796 0.001477
v -0.003689 0.004397 0.001477
v -0.003375 0.004022 0.001299
v -0.003118 0.003716 0.000964
v -0.002951 0.003516 0.000513
v -0.002893 0.003447 0.000000
v -0.002951 0.003516 -0.000513
v -0.003118 0.003716 -0.000964
v -0.003375 0.004022 -0.001299
v -0.003689 0.004397 -0.001477
v -0.004024 0.004796 -0.001477
v -0.004339 0.005171 -0.001299
v -0.004595 0.005477 -0.000964
v -0.004763 0.005676 -0.000513
v -0.005745 0.004821 0.000000
v -0.005676 0.004763 0.000513
v -0.005477 0.004595 0.000964
v -0.005171 0.004339 0.001299
v -0.004796 0.004024 0.001477
v -0.004397 0.003689 0.001477
v -0.004022 0.003375 0.001299
v -0.003716 0.003118 0.000964
v -0.003516 0.002951 0.000513
v -0.003447 0.002893 0.000000
v -0.003516 0.002951 -0.000513
v -0.003716 0.003118 -0.000964
v -0.004022 0.003375 -0.001299
v -0.004397 0.003689 -0.001477
v -0.004796 0.004024 -0.001477
v -0.005171 0.004339 -0.001299
v -0.005477 0.004595 -0.000964
v -0.005676 0.004763 -0.000513
v -0.006495 0.003750 0.000000
v -0.006417 0.003705 0.000513
v -0.006191 0.003575 0.000964
v -0.005846 0.003375 0.001299
v -0.005422 0.003130 0.001477
v -0.004971 0.002870 0.001477
v -0.004547 0.002625 0.001299
v -0.004201 0.002425 0.000964
v -0.003975 0.002295 0.000513
v -0.003897 0.002250 0.000000
v -0.003975 0.002295 -0.000513
v -0.004201 0.002425 -0.000964
v -0.004547 0.002625 -0.001299
v -0.004971 0.002870 -0.001477
v -0.005422 0.003130 -0.001477
v -0.005846 0.003375 -0.001299
v -0.006191 0.003575 -0.000964
v -0.006417 0.003705 -0.000513
v -0.007048 0.002565 0.000000
v -0.006963 0.002534 0.000513
v -0.006718 0.002445 0.000964
v -0.006343 0.002309 0.001299
v -0.005883 0.002141 0.001477
v -0.005393 0.001963 0.001477
v -0.004933 0.001796 0.001299
v -0.004558 0.001659 0.000964
v -0.004314 0.001570 0.000513
v -0.004229 0.001539 0.000000
v -0.004314 0.001570 -0.000513
v -0.004558 0.001659 -0.000964
v -0.004933 0.001796 -0.001299
v -0.005393 0.001963 -0.001477
v -0.005883 0.002141 -0.001477
v -0.006343 0.002309 -0.001299
v -0.006718 0.002445 -0.000964
v -0.006963 0.002534 -0.000513
v -0.007386 0.001302 0.000000
v -0.007297 0.001287 0.000513
v -0.007040 0.001241 0.000964
v -0.006647 0.001172 0.001299
v -0.006165 0.001087 0.001477
v -0.005652 0.000997 0.001477
v -0.005170 0.000912 0.001299
v -0.004777 0.000842 0.000964
v -0.004521 0.000797 0.000513
v -0.004432 0.000781 0.000000
v -0.004521 0.000797 -0.000513
v -0.004777 0.000842 -0.000964
v -0.005170 0.000912 -0.001299
v -0.005652 0.000997 -0.001477
v -0.006165 0.001087 -0.001477
v -0.006647 0.001172 -0.001299
v -0.007040 0.001241 -0.000964
v -0.007297 0.001287 -0.000513
v -0.007500 0.000000 0.000000
v -0.007410 0.000000 0.000513
v -0.007149 0.000000 0.000964
v -0.006750 0.000000 0.001299
v -0.006260 0.000000 0.001477
v -0.005740 0.000000 0.001477
v -0.005250 0.000000 0.001299
v -0.004851 0.000000 0.000964
v -0.004590 0.000000 0.000513
v -0.004500 0.000000 0.000000
v -0.004590 0.000000 -0.000513
v -0.004851 0.000000 -0.000964
v -0.005250 0.000000 -0.001299
v -0.005740 0.000000 -0.001477
v -0.006260 0.000000 -0.001477
v -0.006750 0.000000 -0.001299
v -0.007149 0.000000 -0.000964
v -0.007410 0.000000 -0.000513
v -0.007386 -0.001302 0.000000
v -0.007297 -0.001287 0.000513
v -0.007040 -0.001241 0.000964
v -0.006647 -0.001172 0.001299
v -0.006165 -0.001087 0.001477
v -0.005652 -0.000997 0.001477
v -0.005170 -0.000912 0.001299
v -0.004777 -0.000842 0.000964
v -0.004521 -0.000797 0.000513
v -0.004432 -0.000781 0.000000
v -0.004521 -0.000797 -0.000513
v -0.004777 -0.000842 -0.000964
v -0.005170 -0.000912 -0.001299
v -0.005652 -0.000997 -0.001477
v -0.006165 -0.001087 -0.001477
v -0.006647 -0.001172 -0.001299
v -0.007040 -0.001241 -0.000964
v -0.007297 -0.001287 -0.000513
v -0.007048 -0.002565 0.000000
v -0.006963 -0.002534 0.000513
v -0.006718 -0.002445 0.000964
v -0.006343 -0.002309 0.001299
v -0.005883 -0.002141 0.001477
v -0.005393 -0.001963 0.001477
v -0.004933 -0.001796 0.001299
v -0.004558 -0.001659 0.000964
v -0.004314 -0.001570 0.000513
v -0.004229 -0.001539 0.000000
v -0.004314 -0.001570 -0.000513
v -0.004558 -0.001659 -0.000964
v -0.004933 -0.001796 -0.001299
v -0.005393 -0.001963 -0.001477
v -0.005883 -0.002141 -0.001477
v -0.006343 -0.002309 -0.001299
v -0.006718 -0.002445 -0.000964
v -0.006963 -0.002534 -0.000513
v -0.006495 -0.003750 0.000000
v -0.006417 -0.003705 0.000513
v -0.006191 -0.003575 0.000964
v -0.005846 -0.003375 0.001299
v -0.005422 -0.003130 0.001477
v -0.004971 -0.002870 0.001477
v -0.004547 -0.002625 0.001299
v -0.004201 -0.002425 0.000964
v -0.003975 -0.002295 0.000513
v -0.003897 -0.002250 0.000000
v -0.003975 -0.002295 -0.000513
v -0.004201 -0.002425 -0.000964
v -0.004547 -0.002625 -0.001299
v -0.004971 -0.002870 -0.001477
v -0.005422 -0.003130 -0.001477
v -0.005846 -0.003375 -0.001299
v -0.006191 -0.003575 -0.000964
v -0.006417 -0.003705 -0.000513
v -0.005745 -0.004821 0.000000
v -0.005676 -0.004763 0.000513
v -0.005477 -0.004595 0.000964
v -0.005171 -0.004339 0.001299
v -0.004796 -0.004024 0.001477
v -0.004397 -0.003689 0.001477
v -0.004022 -0.003375 0.001299
v -0.003716 -0.003118 0.000964
v -0.003516 -0.002951 0.000513
v -0.003447 -0.002893 0.000000
v -0.003516 -0.002951 -0.000513
v -0.003716 -0.003118 -0.000964
v -0.004022 -0.003375 -0.001299
v -0.004397 -0.003689 -0.001477
v -0.004796 -0.004024 -0.001477
v -0.005171 -0.004339 -0.001299
v -0.005477 -0.004595 -0.000964
v -0.005676 -0.004763 -0.000513
v -0.004821 -0.005745 0.000000
v -0.004763 -0.005676 0.000513
v -0.004595 -0.005477 0.000964
v -0.004339 -0.005171 0.001299
v -0.004024 -0.004796 0.001477
v -0.003689 -0.004397 0.001477
v -0.003375 -0.004022 0.001299
v -0.003118 -0.003716 0.000964
v -0.002951 -0.003516 0.000513
v -0.002893 -0.003447 0.000000
v -0.002951 -0.003516 -0.000513
v -0.003118 -0.003716 -0.000964
v -0.003375 -0.004022 -0.001299
v -0.003689 -0.004397 -0.001477
v -0.004024 -0.004796 -0.001477
v -0.004339 -0.005171 -0.001299
v -0.004595 -0.005477 -0.000964
v -0.004763 -0.005676 -0.000513
v -0.003750 -0.006495 0.000000
v -0.003705 -0.006417 0.000513
v -0.003575 -0.006191 0.000964
v -0.003375 -0.005846 0.001299
v -0.003130 -0.005422 0.001477
v -0.002870 -0.004971 0.001477
v -0.002625 -0.004547 0.001299
v -0.002425 -0.004201 0.000964
v -0.002295 -0.003975 0.000513
v -0.002250 -0.003897 0.000000
v -0.002295 -0.003975 -0.000513
v -0.002425 -0.004201 -0.000964
v -0.002625 -0.004547 -0.001299
v -0.002870 -0.004971 -0.001477
v -0.003130 -0.005422 -0.001477
v -0.003375 -0.005846 -0.001299
v -0.003575 -0.006191 -0.000964
v -0.003705 -0.006417 -0.000513
v -0.002565 -0.007048 0.000000
v -0.002534 -0.006963 0.000513
v -0.002445 -0.006718 0.000964
v -0.002309 -0.006343 0.001299
v -0.002141 -0.005883 0.001477
v -0.001963 -0.005393 0.001477
v -0.001796 -0.004933 0.001299
v -0.001659 -0.004558 0.000964
v -0.001570 -0.004314 0.000513
v -0.001539 -0.004229 0.000000
v -0.001570 -0.004314 -0.000513
v -0.001659 -0.004558 -0.000964
v -0.001796 -0.004933 -0.001299
v -0.001963 -0.005393 -0.001477
v -0.002141 -0.005883 -0.001477
v -0.002309 -0.006343 -0.001299
v -0.002445 -0.006718 -0.000964
v -0.002534 -0.006963 -0.000513
v -0.001302 -0.007386 0.000000
v -0.001287 -0.007297 0.000513
v -0.001241 -0.007040 0.000964
v -0.001172 -0.006647 0.001299
v -0.001087 -0.006165 0.001477
v -0.000997 -0.005652 0.001477
v -0.000912 -0.005170 0.001299
v -0.000842 -0.004777 0.000964
v -0.000797 -0.004521 0.000513
v -0.000781 -0.004432 0.000000
v -0.000797 -0.004521 -0.000513
v -0.000842 -0.004777 -0.000964
v -0.000912 -0.005170 -0.001299
v -0.000997 -0.005652 -0.001477
v -0.001087 -0.006165 -0.001477
v -0.001172 -0.006647 -0.001299
v -0.001241 -0.007040 -0.000964
v -0.001287 -0.007297 -0.000513
v -0.000000 -0.007500 0.000000
v -0.000000 -0.007410 0.000513
v -0.000000 -0.007149 0.000964
v -0.000000 -0.006750 0.001299
v -0.000000 -0.006260 0.001477
v -0.000000 -0.005740 0.001477
v -0.000000 -0.005250 0.001299
v -0.000000 -0.004851 0.000964
v -0.000000 -0.004590 0.000513
v -0.000000 -0.004500 0.000000
v -0.000000 -0.004590 -0.000513
v -0.000000 -0.004851 -0.000964
v -0.000000 -0.005250 -0.001299
v -0.000000 -0.005740 -0.001477
v -0.000000 -0.006260 -0.001477
v -0.000000 -0.006750 -0.001299
v -0.000000 -0.007149 -0.000964
v -0.000000 -0.007410 -0.000513
v 0.001302 -0.007386 0.000000
v 0.001287 -0.007297 0.000513
v 0.001241 -0.007040 0.000964
v 0.001172 -0.006647 0.001299
v 0.001087 -0.006165 0.001477
v 0.000997 -0.005652 0.001477
v 0.000912 -0.005170 0.001299
v 0.000842 -0.004777 0.000964
v 0.000797 -0.004521 0.000513
v 0.000781 -0.004432 0.000000
v 0.000797 -0.004521 -0.000513
v 0.000842 -0.004777 -0.000964
v 0.000912 -0.005170 -0.001299
v 0.000997 -0.005652 -0.001477
v 0.001087 -0.006165 -0.001477
v 0.001172 -0.006647 -0.001299
v 0.001241 -0.007040 -0.000964
v 0.001287 -0.007297 -0.000513
v 0.002565 -0.007048 0.000000
v 0.002534 -0.006963 0.000513
v 0.002445 -0.006718 0.000964
v 0.002309 -0.006343 0.001299
v 0.002141 -0.005883 0.001477
v 0.001963 -0.005393 0.001477
v 0.001796 -0.004933 0.001299
v 0.001659 -0.004558 0.000964
v 0.001570 -0.004314 0.000513
v 0.001539 -0.004229 0.000000
v 0.001570 -0.004314 -0.000513
v 0.001659 -0.004558 -0.000964
v 0.001796 -0.004933 -0.001299
v 0.001963 -0.005393 -0.001477
v 0.002141 -0.005883 -0.001477
v 0.002309 -0.006343 -0.001299
v 0.002445 -0.006718 -0.000964
v 0.002534 -0.006963 -0.000513
v 0.003750 -0.006495 0.000000
v 0.003705 -0.006417 0.000513
v 0.003575 -0.006191 0.000964
v 0.003375 -0.005846 0.001299
v 0.003130 -0.005422 0.001477
v 0.002870 -0.004971 0.001477
v 0.002625 -0.004547 0.001299
v 0.002425 -0.004201 0.000964
v 0.002295 -0.003975 0.000513
v 0.002250 -0.003897 0.000000
v 0.002295 -0.003975 -0.000513
v 0.002425 -0.004201 -0.000964
v 0.002625 -0.004547 -0.001299
v 0.002870 -0.004971 -0.001477
v 0.003130 -0.005422 -0.001477
v 0.003375 -0.005846 -0.001299
v 0.003575 -0.006191 -0.000964
v 0.003705 -0.006417 -0.000513
v 0.004821 -0.005745 0.000000
v 0.004763 -0.005676 0.000513
v 0.004595 -0.005477 0.000964
v 0.004339 -0.005171 0.001299
v 0.004024 -0.004796 0.001477
v 0.003689 -0.004397 0.001477
v 0.003375 -0.004022 0.001299
v 0.003118 -0.003716 0.000964
v 0.002951 -0.003516 0.000513
v 0.002893 -0.003447 0.000000
v 0.002951 -0.003516 -0.000513
v 0.003118 -0.003716 -0.000964
v 0.003375 -0.004022 -0.001299
v 0.003689 -0.004397 -0.001477
v 0.004024 -0.004796 -0.001477
v 0.004339 -0.005171 -0.001299
v 0.004595 -0.005477 -0.000964
v 0.004763 -0.005676 -0.000513
v 0.005745 -0.004821 0.000000
v 0.005676 -0.004763 0.000513
v 0.005477 -0.004595 0.000964
v 0.005171 -0.004339 0.001299
v 0.004796 -0.004024 0.001477
v 0.004397 -0.003689 0.001477
v 0.004022 -0.003375 0.001299
v 0.003716 -0.003118 0.000964
v 0.003516 -0.002951 0.000513
v 0.003447 -0.002893 0.000000
v 0.003516 -0.002951 -0.000513
v 0.003716 -0.003118 -0.000964
v 0.004022 -0.003375 -0.001299
v 0.004397 -0.003689 -0.001477
v 0.004796 -0.004024 -0.001477
v 0.005171 -0.004339 -0.001299
v 0.005477 -0.004595 -0.000964
v 0.005676 -0.004763 -0.000513
v 0.006495 -0.003750 0.000000
v 0.006417 -0.003705 0.000513
v 0.006191 -0.003575 0.000964
v 0.005846 -0.003375 0.001299
v 0.005422 -0.003130 0.001477
v 0.004971 -0.002870 0.001477
v 0.004547 -0.002625 0.001299
v 0.004201 -0.002425 0.000964
v 0.003975 -0.002295 0.000513
v 0.003897 -0.002250 0.000000
v 0.003975 -0.002295 -0.000513
v 0.004201 -0.002425 -0.000964
v 0.004547 -0.002625 -0.001299
v 0.004971 -0.002870 -0.001477
v 0.005422 -0.003130 -0.001477
v 0.005846 -0.003375 -0.001299
v 0.006191 -0.003575 -0.000964
v 0.006417 -0.003705 -0.000513
v 0.007048 -0.002565 0.000000
v 0.006963 -0.002534 0.000513
v 0.006718 -0.002445 0.000964
v 0.006343 -0.002309 0.001299
v 0.005883 -0.002141 0.001477
v 0.005393 -0.001963 0.001477
v 0.004933 -0.001796 0.001299
v 0.004558 -0.001659 0.000964
v 0.004314 -0.001570 0.000513
v 0.004229 -0.001539 0.000000
v 0.004314 -0.001570 -0.000513
v 0.004558 -0.001659 -0.000964
v 0.004933 -0.001796 -0.001299
v 0.005393 -0.001963 -0.001477
v 0.005883 -0.002141 -0.001477
v 0.006343 -0.002309 -0.001299
v 0.006718 -0.002445 -0.000964
v 0.006963 -0.002534 -0.000513
v 0.007386 -0.001302 0.000000
v 0.007297 -0.001287 0.000513
v 0.007040 -0.001241 0.000964
v 0.006647 -0.001172 0.001299
v 0.006165 -0.001087 0.001477
v 0.005652 -0.000997 0.001477
v 0.005170 -0.000912 0.001299
v 0.004777 -0.000842 0.000964
v 0.004521 -0.000797 0.000513
v 0.004432 -0.000781 0.000000
v 0.004521 -0.000797 -0.000513
v 0.004777 -0.000842 -0.000964
v 0.005170 -0.000912 -0.001299
v 0.005652 -0.000997 -0.001477
v 0.006165 -0.001087 -0.001477
v 0.006647 -0.001172 -0.001299
v 0.007040 -0.001241 -0.000964
v 0.007297 -0.001287 -0.000513
vn 1.000000 0.000000 0.000000
vn 0.939693 0.000000 0.342020
vn 0.766044 0.000000 0.642788
vn 0.500000 0.000000 0.866025
vn 0.173648 0.000000 0.984808
vn -0.173648 -0.000000 0.984808
vn -0.500000 -0.000000 0.866025
vn -0.766044 -0.000000 0.642788
vn -0.939693 -0.000000 0.342020
vn -1.000000 -0.000000 0.000000
vn -0.939693 -0.000000 -0.342020
vn -0.766044 -0.000000 -0.642788
vn -0.500000 -0.000000 -0.866025
vn -0.173648 -0.000000 -0.984808
vn 0.173648 0.000000 -0.984808
vn 0.500000 0.000000 -0.866025
vn 0.766044 0.000000 -0.642788
vn 0.939693 0.000000 -0.342020
vn 0.984808 0.173648 0.000000
vn 0.925417 0.163176 0.342020
vn 0.754407 0.133022 0.642788
vn 0.492404 0.086824 0.866025
vn 0.171010 0.030154 0.984808
vn -0.171010 -0.030154 0.984808
vn -0.492404 -0.086824 0.866025
vn -0.754407 -0.133022 0.642788
vn -0.925417 -0.163176 0.342020
vn -0.984808 -0.173648 0.000000
vn -0.925417 -0.163176 -0.342020
vn -0.754407 -0.133022 -0.642788
vn -0.492404 -0.086824 -0.866025
vn -0.171010 -0.030154 -0.984808
vn 0.171010 0.030154 -0.984808
vn 0.492404 0.086824 -0.866025
vn 0.754407 0.133022 -0.642788
vn 0.925417 0.163176 -0.342020
vn 0.939693 0.342020 0.000000
vn 0.883022 0.321394 0.342020
vn 0.719846 0.262003 0.642788
vn 0.469846 0.171010 0.866025
vn 0.163176 0.059391 0.984808
vn -0.163176 -0.059391 0.984808
vn -0.469846 -0.171010 0.866025
vn -0.719846 -0.262003 0.642788
vn -0.883022 -0.321394 0.342020
vn -0.939693 -0.342020 0.000000
vn -0.883022 -0.321394 -0.342020
vn -0.719846 -0.262003 -0.642788
vn -0.469846 -0.171010 -0.866025
vn -0.163176 -0.059391 -0.984808
vn 0.163176 0.059391 -0.984808
vn 0.469846 0.171010 -0.866025
vn 0.719846 0.262003 -0.642788
vn 0.883022 0.321394 -0.342020
vn 0.866025 0.500000 0.000000
vn 0.813798 0.469846 0.342020
vn 0.663414 0.383022 0.642788
vn 0.433013 0.250000 0.866025
vn 0.150384 0.086824 0.984808
vn -0.150384 -0.086824 0.984808
vn -0.433013 -0.250000 0.866025
vn -0.663414 -0.383022 0.642788
vn -0.813798 -0.469846 0.342020
vn -0.866025 -0.500000 0.000000
vn -0.813798 -0.469846 -0.342020
vn -0.663414 -0.383022 -0.642788
vn -0.433013 -0.250000 -0.866025
vn -0.150384 -0.086824 -0.984808
vn 0.150384 0.086824 -0.984808
vn 0.433013 0.250000 -0.866025
vn 0.663414 0.383022 -0.642788
vn 0.813798 0.469846 -0.342020
vn 0.766044 0.642788 0.000000
vn 0.719846 0.604023 0.342020
vn 0.586824 0.492404 0.642788
vn 0.383022 0.321394 0.866025
vn 0.133022 0.111619 0.984808
vn -0.133022 -0.111619 0.984808
vn -0.383022 -0.321394 0.866025
vn -0.586824 -0.492404 0.642788
vn -0.719846 -0.604023 0.342020
vn -0.766044 -0.642788 0.000000
vn -0.719846 -0.604023 -0.342020
vn -0.586824 -0.492404 -0.642788
vn -0.383022 -0.321394 -0.866025
vn -0.133022 -0.111619 -0.984808
vn 0.133022 0.111619 -0.984808
vn 0.383022 0.321394 -0.866025
vn 0.586824 0.492404 -0.642788
vn 0.719846 0.604023 -0.342020
vn 0.642788 0.766044 0.000000
vn 0.604023 0.719846 0.342020
vn 0.492404 0.586824 0.642788
vn 0.321394 0.383022 0.866025
vn 0.111619 0.133022 0.984808
vn -0.111619 -0.133022 0.984808
vn -0.321394 -0.383022 0.866025
vn -0.492404 -0.586824 0.642788
vn -0.604023 -0.719846 0.342020
vn -0.642788 -0.766044 0.000000
vn -0.604023 -0.719846 -0.342020
vn -0.492404 -0.586824 -0.642788
vn -0.321394 -0.383022 -0.866025
vn -0.111619 -0.133022 -0.984808
vn 0.111619 0.133022 -0.984808
vn 0.321394 0.383022 -0.866025
vn 0.492404 0.586824 -0.642788
vn 0.604023 0.719846 -0.342020
vn 0.500000 0.866025 0.000000
vn 0.469846 0.813798 0.342020
vn 0.383022 0.663414 0.642788
vn 0.250000 0.433013 0.866025
vn 0.086824 0.150384 0.984808
vn -0.086824 -0.150384 0.984808
vn -0.250000 -0.433013 0.866025
vn -0.383022 -0.663414 0.642788
vn -0.469846 -0.813798 0.342020
vn -0.500000 -0.866025 0.000000
vn -0.469846 -0.813798 -0.342020
vn -0.383022 -0.663414 -0.642788
vn -0.250000 -0.433013 -0.866025
vn -0.086824 -0.150384 -0.984808
vn 0.086824 0.150384 -0.984808
vn 0.250000 0.433013 -0.866025
vn 0.383022 0.663414 -0.642788
vn 0.469846 0.813798 -0.342020
vn 0.342020 0.939693 0.000000
vn 0.321394 0.883022 0.342020
vn 0.262003 0.719846 0.642788
vn 0.171010 0.469846 0.866025
vn 0.059391 0.163176 0.984808
vn -0.059391 -0.163176 0.984808
vn -0.171010 -0.469846 0.866025
vn -0.262003 -0.719846 0.642788
vn -0.321394 -0.883022 0.342020
vn -0.342020 -0.939693 0.000000
vn -0.321394 -0.883022 -0.342020
vn -0.262003 -0.719846 -0.642788
vn -0.171010 -0.469846 -0.866025
vn -0.059391 -0.163176 -0.984808
vn 0.059391 0.163176 -0.984808
vn 0.171010 0.469846 -0.866025
vn 0.262003 0.719846 -0.642788
vn 0.321394 0.883022 -0.342020
vn 0.173648 0.984808 0.000000
vn 0.163176 0.925417 0.342020
vn 0.133022 0.754407 0.642788
vn 0.086824 0.492404 0.866025
vn 0.030154 0.171010 0.984808
vn -0.030154 -0.171010 0.984808
vn -0.086824 -0.492404 0.866025
vn -0.133022 -0.754407 0.642788
vn -0.163176 -0.925417 0.342020
vn -0.173648 -0.984808 0.000000
vn -0.163176 -0.925417 -0.342020
vn -0.133022 -0.754407 -0.642788
vn -0.086824 -0.492404 -0.866025
vn -0.030154 -0.171010 -0.984808
vn 0.030154 0.171010 -0.984808
vn 0.086824 0.492404 -0.866025
vn 0.133022 0.754407 -0.642788
vn 0.163176 0.925417 -0.342020
vn 0.000000 1.000000 0.000000
vn 0.000000 0.939693 0.342020
vn 0.000000 0.766044 0.642788
vn 0.000000 0.500000 0.866025
vn 0.000000 0.173648 0.984808
vn -0.000000 -0.173648 0.984808
vn -0.000000 -0.500000 0.866025
vn -0.000000 -0.766044 0.642788
vn -0.000000 -0.939693 0.342020
vn -0.000000 -1.000000 0.000000
vn -0.000000 -0.939693 -0.342020
vn -0.000000 -0.766044 -0.642788
vn -0.000000 -0.500000 -0.866025
vn -0.000000 -0.173648 -0.984808
vn 0.000000 0.173648 -0.984808
vn 0.000000 0.500000 -0.866025
vn 0.000000 0.766044 -0.642788
vn 0.000000 0.939693 -0.342020
vn -0.173648 0.984808 0.000000
vn -0.163176 0.925417 0.342020
vn -0.133022 0.754407 0.642788
vn -0.086824 0.492404 0.866025
vn -0.030154 0.171010 0.984808
vn 0.030154 -0.171010 0.984808
vn 0.086824 -0.492404 0.866025
vn 0.133022 -0.754407 0.642788
vn 0.163176 -0.925417 0.342020
vn 0.173648 -0.984808 0.000000
vn 0.163176 -0.925417 -0.342020
vn 0.133022 -0.754407 -0.642788
vn 0.086824 -0.492404 -0.866025
vn 0.030154 -0.171010 -0.984808
vn -0.030154 0.171010 -0.984808
vn -0.086824 0.492404 -0.866025
vn -0.133022 0.754407 -0.642788
vn -0.163176 0.925417 -0.342020
vn -0.342020 0.939693 0.000000
vn -0.321394 0.883022 0.342020
vn -0.262003 0.719846 0.642788
vn -0.171010 0.469846 0.866025
vn -0.059391 0.163176 0.984808
vn 0.059391 -0.163176 0.984808
vn 0.171010 -0.469846 0.866025
vn 0.262003 -0.719846 0.642788
vn 0.321394 -0.883022 0.342020
vn 0.342020 -0.939693 0.000000
vn 0.321394 -0.883022 -0.342020
vn 0.262003 -0.719846 -0.642788
vn 0.171010 -0.469846 -0.866025
vn 0.059391 -0.163176 -0.984808
vn -0.059391 0.163176 -0.984808
vn -0.171010 0.469846 -0.866025
vn -0.262003 0.719846 -0.642788
vn -0.321394 0.883022 -0.342020
vn -0.500000 0.866025 0.000000
vn -0.469846 0.813798 0.342020
vn -0.383022 0.663414 0.642788
vn -0.250000 0.433013 0.866025
vn -0.086824 0.150384 0.984808
vn 0.086824 -0.150384 0.984808
vn 0.250000 -0.433013 0.866025
vn 0.383022 -0.663414 0.642788
vn 0.469846 -0.813798 0.342020
vn 0.500000 -0.866025 0.000000
vn 0.469846 -0.813798 -0.342020
vn 0.383022 -0.663414 -0.642788
vn 0.250000 -0.433013 -0.866025
vn 0.086824 -0.150384 -0.984808
vn -0.086824 0.150384 -0.984808
vn -0.250000 0.433013 -0.866025
vn -0.383022 0.663414 -0.642788
vn -0.469846 0.813798 -0.342020
vn -0.642788 0.766044 0.000000
vn -0.604023 0.719846 0.342020
vn -0.492404 0.586824 0.642788
vn -0.321394 0.383022 0.866025
vn -0.111619 0.133022 0.984808
vn 0.111619 -0.133022 0.984808
vn 0.321394 -0.383022 0.866025
vn 0.492404 -0.586824 0.642788
vn 0.604023 -0.719846 0.342020
vn 0.642788 -0.766044 0.000000
vn 0.604023 -0.719846 -0.342020
vn 0.492404 -0.586824 -0.642788
vn 0.321394 -0.383022 -0.866025
vn 0.111619 -0.133022 -0.984808
vn -0.111619 0.133022 -0.984808
vn -0.321394 0.383022 -0.866025
vn -0.492404 0.586824 -0.642788
vn -0.604023 0.719846 -0.342020
vn -0.766044 0.642788 0.000000
vn -0.719846 0.604023 0.342020
vn -0.586824 0.492404 0.642788
vn -0.383022 0.321394 0.866025
vn -0.133022 0.111619 0.984808
vn 0.133022 -0.111619 0.984808
vn 0.383022 -0.321394 0.866025
vn 0.586824 -0.492404 0.642788
vn 0.719846 -0.604023 0.342020
vn 0.766044 -0.642788 0.000000
vn 0.719846 -0.604023 -0.342020
vn 0.586824 -0.492404 -0.642788
vn 0.383022 -0.321394 -0.866025
vn 0.133022 -0.111619 -0.984808
vn -0.133022 0.111619 -0.984808
vn -0.383022 0.321394 -0.866025
vn -0.586824 0.492404 -0.642788
vn -0.719846 0.604023 -0.342020
vn -0.866025 0.500000 0.000000
vn -0.813798 0.469846 0.342020
vn -0.663414 0.383022 0.642788
vn -0.433013 0.250000 0.866025
vn -0.150384 0.086824 0.984808
vn 0.150384 -0.086824 0.984808
vn 0.433013 -0.250000 0.866025
vn 0.663414 -0.383022 0.642788
vn 0.813798 -0.469846 0.342020
vn 0.866025 -0.500000 0.000000
vn 0.813798 -0.469846 -0.342020
vn 0.663414 -0.383022 -0.642788
vn 0.433013 -0.250000 -0.866025
vn 0.150384 -0.086824 -0.984808
vn -0.150384 0.086824 -0.984808
vn -0.433013 0.250000 -0.866025
vn -0.663414 0.383022 -0.642788
vn -0.813798 0.469846 -0.342020
vn -0.939693 0.342020 0.000000
vn -0.883022 0.321394 0.342020
vn -0.719846 0.262003 0.642788
vn -0.469846 0.171010 0.866025
vn -0.163176 0.059391 0.984808
vn 0.163176 -0.059391 0.984808
vn 0.469846 -0.171010 0.866025
vn 0.719846 -0.262003 0.642788
vn 0.883022 -0.321394 0.342020
vn 0.939693 -0.342020 0.000000
vn 0.883022 -0.321394 -0.342020
vn 0.719846 -0.262003 -0.642788
vn 0.469846 -0.171010 -0.866025
vn 0.163176 -0.059391 -0.984808
vn -0.163176 0.059391 -0.984808
vn -0.469846 0.171010 -0.866025
vn -0.719846 0.262003 -0.642788
vn -0.883022 0.321394 -0.342020
vn -0.984808 0.173648 0.000000
vn -0.925417 0.163176 0.342020
vn -0.754407 0.133022 0.642788
vn -0.492404 0.086824 0.866025
vn -0.171010 0.030154 0.984808
vn 0.171010 -0.030154 0.984808
vn 0.492404 -0.086824 0.866025
vn 0.754407 -0.133022 0.642788
vn 0.925417 -0.163176 0.342020
vn 0.984808 -0.173648 0.000000
vn 0.925417 -0.163176 -0.342020
vn 0.754407 -0.133022 -0.642788
vn 0.492404 -0.086824 -0.866025
vn 0.171010 -0.030154 -0.984808
vn -0.171010 0.030154 -0.984808
vn -0.492404 0.086824 -0.866025
vn -0.754407 0.133022 -0.642788
vn -0.925417 0.163176 -0.342020
vn -1.000000 0.000000 0.000000
vn -0.939693 0.000000 0.342020
vn -0.766044 0.000000 0.642788
vn -0.500000 0.000000 0.866025
vn -0.173648 0.000000 0.984808
vn 0.173648 -0.000000 0.984808
vn 0.500000 -0.000000 0.866025
vn 0.766044 -0.000000 0.642788
vn 0.939693 -0.000000 0.342020
vn 1.000000 -0.000000 0.000000
vn 0.939693 -0.000000 -0.342020
vn 0.766044 -0.000000 -0.642788
vn 0.500000 -0.000000 -0.866025
vn 0.173648 -0.000000 -0.984808
vn -0.173648 0.000000 -0.984808
vn -0.500000 0.000000 -0.866025
vn -0.766044 0.000000 -0.642788
vn -0.939693 0.000000 -0.342020
vn -0.984808 -0.173648 0.000000
vn -0.925417 -0.163176 0.342020
vn -0.754407 -0.133022 0.642788
vn -0.492404 -0.086824 0.866025
vn -0.171010 -0.030154 0.984808
vn 0.171010 0.030154 0.984808
vn 0.492404 0.086824 0.866025
vn 0.754407 0.133022 0.642788
vn 0.925417 0.163176 0.342020
vn 0.984808 0.173648 0.000000
vn 0.925417 0.163176 -0.342020
vn 0.754407 0.133022 -0.642788
vn 0.492404 0.086824 -0.866025
vn 0.171010 0.030154 -0.984808
vn -0.171010 -0.030154 -0.984808
vn -0.492404 -0.086824 -0.866025
vn -0.754407 -0.133022 -0.642788
vn -0.925417 -0.163176 -0.342020
vn -0.939693 -0.342020 0.000000
vn -0.883022 -0.321394 0.342020
vn -0.719846 -0.262003 0.642788
vn -0.469846 -0.171010 0.866025
vn -0.163176 -0.059391 0.984808
vn 0.163176 0.059391 0.984808
vn 0.469846 0.171010 0.866025
vn 0.719846 0.262003 0.642788
vn 0.883022 0.321394 0.342020
vn 0.939693 0.342020 0.000000
vn 0.883022 0.321394 -0.342020
vn 0.719846 0.262003 -0.642788
vn 0.469846 0.171010 -0.866025
vn 0.163176 0.059391 -0.984808
vn -0.163176 -0.059391 -0.984808
vn -0.469846 -0.171010 -0.866025
vn -0.719846 -0.262003 -0.642788
vn -0.883022 -0.321394 -0.342020
vn -0.866025 -0.500000 0.000000
vn -0.813798 -0.469846 0.342020
vn -0.663414 -0.383022 0.642788
vn -0.433013 -0.250000 0.866025
vn -0.150384 -0.086824 0.984808
vn 0.150384 0.086824 0.984808
vn 0.433013 0.250000 0.866025
vn 0.663414 0.383022 0.642788
vn 0.813798 0.469846 0.342020
vn 0.866025 0.500000 0.000000
vn 0.813798 0.469846 -0.342020
vn 0.663414 0.383022 -0.642788
vn 0.433013 0.250000 -0.866025
vn 0.150384 0.086824 -0.984808
vn -0.150384 -0.086824 -0.984808
vn -0.433013 -0.250000 -0.866025
vn -0.663414 -0.383022 -0.642788
vn -0.813798 -0.469846 -0.342020
vn -0.766044 -0.642788 0.000000
vn -0.719846 -0.604023 0.342020
vn -0.586824 -0.492404 0.642788
vn -0.383022 -0.321394 0.866025
vn -0.133022 -0.111619 0.984808
vn 0.133022 0.111619 0.984808
vn 0.383022 0.321394 0.866025
vn 0.586824 0.492404 0.642788
vn 0.719846 0.604023 0.342020
vn 0.766044 0.642788 0.000000
vn 0.719846 0.604023 -0.342020
vn 0.586824 0.492404 -0.642788
vn 0.383022 0.321394 -0.866025
vn 0.133022 0.111619 -0.984808
vn -0.133022 -0.111619 -0.984808
vn -0.383022 -0.321394 -0.866025
vn -0.586824 -0.492404 -0.642788
vn -0.719846 -0.604023 -0.342020
vn -0.642788 -0.766044 0.000000
vn -0.604023 -0.719846 0.342020
vn -0.492404 -0.586824 0.642788
vn -0.321394 -0.383022 0.866025
vn -0.111619 -0.133022 0.984808
vn 0.111619 0.133022 0.984808
vn 0.321394 0.383022 0.866025
vn 0.492404 0.586824 0.642788
vn 0.604023 0.719846 0.342020
vn 0.642788 0.766044 0.000000
vn 0.604023 0.719846 -0.342020
vn 0.492404 0.586824 -0.642788
vn 0.321394 0.383022 -0.866025
vn 0.111619 0.133022 -0.984808
vn -0.111619 -0.133022 -0.984808
vn -0.321394 -0.383022 -0.866025
vn -0.492404 -0.586824 -0.642788
vn -0.604023 -0.719846 -0.342020
vn -0.500000 -0.866025 0.000000
vn -0.469846 -0.813798 0.342020
vn -0.383022 -0.663414 0.642788
vn -0.250000 -0.433013 0.866025
vn -0.086824 -0.150384 0.984808
vn 0.086824 0.150384 0.984808
vn 0.250000 0.433013 0.866025
vn 0.383022 0.663414 0.642788
vn 0.469846 0.813798 0.342020
vn 0.500000 0.866025 0.000000
vn 0.469846 0.813798 -0.342020
vn 0.383022 0.663414 -0.642788
vn 0.250000 0.433013 -0.866025
vn 0.086824 0.150384 -0.984808
vn -0.086824 -0.150384 -0.984808
vn -0.250000 -0.433013 -0.866025
vn -0.383022 -0.663414 -0.642788
vn -0.469846 -0.813798 -0.342020
vn -0.342020 -0.939693 0.000000
vn -0.321394 -0.883022 0.342020
vn -0.262003 -0.719846 0.642788
vn -0.171010 -0.469846 0.866025
vn -0.059391 -0.163176 0.984808
vn 0.059391 0.163176 0.984808
vn 0.171010 0.469846 0.866025
vn 0.262003 0.719846 0.642788
vn 0.321394 0.883022 0.342020
vn 0.342020 0.939693 0.000000
vn 0.321394 0.883022 -0.342020
vn 0.262003 0.719846 -0.642788
vn 0.171010 0.469846 -0.866025
vn 0.059391 0.163176 -0.984808
vn -0.059391 -0.163176 -0.984808
vn -0.171010 -0.469846 -0.866025
vn -0.262003 -0.719846 -0.642788
vn -0.321394 -0.883022 -0.342020
vn -0.173648 -0.984808 0.000000
vn -0.163176 -0.925417 0.342020
vn -0.133022 -0.754407 0.642788
vn -0.086824 -0.492404 0.866025
vn -0.030154 -0.171010 0.984808
vn 0.030154 0.171010 0.984808
vn 0.086824 0.492404 0.866025
vn 0.133022 0.754407 0.642788
vn 0.163176 0.925417 0.342020
vn 0.173648 0.984808 0.000000
vn 0.163176 0.925417 -0.342020
vn 0.133022 0.754407 -0.642788
vn 0.086824 0.492404 -0.866025
vn 0.030154 0.171010 -0.984808
vn -0.030154 -0.171010 -0.984808
vn -0.086824 -0.492404 -0.866025
vn -0.133022 -0.754407 -0.642788
vn -0.163176 -0.925417 -0.342020
vn -0.000000 -1.000000 0.000000
vn -0.000000 -0.939693 0.342020
vn -0.000000 -0.766044 0.642788
vn -0.000000 -0.500000 0.866025
vn -0.000000 -0.173648 0.984808
vn 0.000000 0.173648 0.984808
vn 0.000000 0.500000 0.866025
vn 0.000000 0.766044 0.642788
vn 0.000000 0.939693 0.342020
vn 0.000000 1.000000 0.000000
vn 0.000000 0.939693 -0.342020
vn 0.000000 0.766044 -0.642788
vn 0.000000 0.500000 -0.866025
vn 0.000000 0.173648 -0.984808
vn -0.000000 -0.173648 -0.984808
vn -0.000000 -0.500000 -0.866025
vn -0.000000 -0.766044 -0.642788
vn -0.000000 -0.939693 -0.342020
vn 0.173648 -0.984808 0.000000
vn 0.163176 -0.925417 0.342020
vn 0.133022 -0.754407 0.642788
vn 0.086824 -0.492404 0.866025
vn 0.030154 -0.171010 0.984808
vn -0.030154 0.171010 0.984808
vn -0.086824 0.492404 0.866025
vn -0.133022 0.754407 0.642788
vn -0.163176 0.925417 0.342020
vn -0.173648 0.984808 0.000000
vn -0.163176 0.925417 -0.342020
vn -0.133022 0.754407 -0.642788
vn -0.086824 0.492404 -0.866025
vn -0.030154 0.171010 -0.984808
vn 0.030154 -0.171010 -0.984808
vn 0.086824 -0.492404 -0.866025
vn 0.133022 -0.754407 -0.642788
vn 0.163176 -0.925417 -0.342020
vn 0.342020 -0.939693 0.000000
vn 0.321394 -0.883022 0.342020
vn 0.262003 -0.719846 0.642788
vn 0.171010 -0.469846 0.866025
vn 0.059391 -0.163176 0.984808
vn -0.059391 0.163176 0.984808
vn -0.171010 0.469846 0.866025
vn -0.262003 0.719846 0.642788
vn -0.321394 0.883022 0.342020
vn -0.342020 0.939693 0.000000
vn -0.321394 0.883022 -0.342020
vn -0.262003 0.719846 -0.642788
vn -0.171010 0.469846 -0.866025
vn -0.059391 0.163176 -0.984808
vn 0.059391 -0.163176 -0.984808
vn 0.171010 -0.469846 -0.866025
vn 0.262003 -0.719846 -0.642788
vn 0.321394 -0.883022 -0.342020
vn 0.500000 -0.866025 0.000000
vn 0.469846 -0.813798 0.342020
vn 0.383022 -0.663414 0.642788
vn 0.250000 -0.433013 0.866025
vn 0.086824 -0.150384 0.984808
vn -0.086824 0.150384 0.984808
vn -0.250000 0.433013 0.866025
vn -0.383022 0.663414 0.642788
vn -0.469846 0.813798 0.342020
vn -0.500000 0.866025 0.000000
vn -0.469846 0.813798 -0.342020
vn -0.383022 0.663414 -0.642788
vn -0.250000 0.433013 -0.866025
vn -0.086824 0.150384 -0.984808
vn 0.086824 -0.150384 -0.984808
vn 0.250000 -0.433013 -0.866025
vn 0.383022 -0.663414 -0.642788
vn 0.469846 -0.813798 -0.342020
vn 0.642788 -0.766044 0.000000
vn 0.604023 -0.719846 0.342020
vn 0.492404 -0.586824 0.642788
vn 0.321394 -0.383022 0.866025
vn 0.111619 -0.133022 0.984808
vn -0.111619 0.133022 0.984808
vn -0.321394 0.383022 0.866025
vn -0.492404 0.586824 0.642788
vn -0.604023 0.719846 0.342020
vn -0.642788 0.766044 0.000000
vn -0.604023 0.719846 -0.342020
vn -0.492404 0.586824 -0.642788
vn -0.321394 0.383022 -0.866025
vn -0.111619 0.133022 -0.984808
vn 0.111619 -0.133022 -0.984808
vn 0.321394 -0.383022 -0.866025
vn 0.492404 -0.586824 -0.642788
vn 0.604023 -0.719846 -0.342020
vn 0.766044 -0.642788 0.000000
vn 0.719846 -0.604023 0.342020
vn 0.586824 -0.492404 0.642788
vn 0.383022 -0.321394 0.866025
vn 0.133022 -0.111619 0.984808
vn -0.133022 0.111619 0.984808
vn -0.383022 0.321394 0.866025
vn -0.586824 0.492404 0.642788
vn -0.719846 0.604023 0.342020
vn -0.766044 0.642788 0.000000
vn -0.719846 0.604023 -0.342020
vn -0.586824 0.492404 -0.642788
vn -0.383022 0.321394 -0.866025
vn -0.133022 0.111619 -0.984808
vn 0.133022 -0.111619 -0.984808
vn 0.383022 -0.321394 -0.866025
vn 0.586824 -0.492404 -0.642788
vn 0.719846 -0.604023 -0.342020
vn 0.866025 -0.500000 0.000000
vn 0.813798 -0.469846 0.342020
vn 0.663414 -0.383022 0.642788
vn 0.433013 -0.250000 0.866025
vn 0.150384 -0.086824 0.984808
vn -0.150384 0.086824 0.984808
vn -0.433013 0.250000 0.866025
vn -0.663414 0.383022 0.642788
vn -0.813798 0.469846 0.342020
vn -0.866025 0.500000 0.000000
vn -0.813798 0.469846 -0.342020
vn -0.663414 0.383022 -0.642788
vn -0.433013 0.250000 -0.866025
vn -0.150384 0.086824 -0.984808
vn 0.150384 -0.086824 -0.984808
vn 0.433013 -0.250000 -0.866025
vn 0.663414 -0.383022 -0.642788
vn 0.813798 -0.469846 -0.342020
vn 0.939693 -0.342020 0.000000
vn 0.883022 -0.321394 0.342020
vn 0.719846 -0.262003 0.642788
vn 0.469846 -0.171010 0.866025
vn 0.163176 -0.059391 0.984808
vn -0.163176 0.059391 0.984808
vn -0.469846 0.171010 0.866025
vn -0.719846 0.262003 0.642788
vn -0.883022 0.321394 0.342020
vn -0.939693 0.342020 0.000000
vn -0.883022 0.321394 -0.342020
vn -0.719846 0.262003 -0.642788
vn -0.469846 0.171010 -0.866025
vn -0.163176 0.059391 -0.984808
vn 0.163176 -0.059391 -0.984808
vn 0.469846 -0.171010 -0.866025
vn 0.719846 -0.262003 -0.642788
vn 0.883022 -0.321394 -0.342020
vn 0.984808 -0.173648 0.000000
vn 0.925417 -0.163176 0.342020
vn 0.754407 -0.133022 0.642788
vn 0.492404 -0.086824 0.866025
vn 0.171010 -0.030154 0.984808
vn -0.171010 0.030154 0.984808
vn -0.492404 0.086824 0.866025
vn -0.754407 0.133022 0.642788
vn -0.925417 0.163176 0.342020
vn -0.984808 0.173648 0.000000
vn -0.925417 0.163176 -0.342020
vn -0.754407 0.133022 -0.642788
vn -0.492404 0.086824 -0.866025
vn -0.171010 0.030154 -0.984808
vn 0.171010 -0.030154 -0.984808
vn 0.492404 -0.086824 -0.866025
vn 0.754407 -0.133022 -0.642788
vn 0.925417 -0.163176 -0.342020
f 1//1 19//19 20//20
f 1//1 20//20 2//2
f 2//2 20//20 21//21
f 2//2 21//21 3//3
f 3//3 21//21 22//22
f 3//3 22//22 4//4
f 4//4 22//22 23//23
f 4//4 23//23 5//5
f 5//5 23//23 24//24
f 5//5 24//24 6//6
f 6//6 24//24 25//25
f 6//6 25//25 7//7
f 7//7 25//25 26//26
f 7//7 26//26 8//8
f 8//8 26//26 27//27
f 8//8 27//27 9//9
f 9//9 27//27 28//28
f 9//9 28//28 10//10
f 10//10 28//28 29//29
f 10//10 29//29 11//11
f 11//11 29//29 30//30
f 11//11 30//30 12//12
f 12//12 30//30 31//31
f 12//12 31//31 13//13
f 13//13 31//31 32//32
f 13//13 32//32 14//14
f 14//14 32//32 33//33
f 14//14 33//33 15//15
f 15//15 33//33 34//34
f 15//15 34//34 16//16
f 16//16 34//34 35//35
f 16//16 35//35 17//17
f 17//17 35//35 36//36
f 17//17 36//36 18//18
f 18//18 36//36 19//19
f 18//18 19//19 1//1
f 19//19 37//37 38//38
f 19//19 38//38 20//20
f 20//20 38//38 39//39
f 20//20 39//39 21//21
f 21//21 39//39 40//40
f 21//21 40//40 22//22
f 22//22 40//40 41//41
f 22//22 41//41 23//23
f 23//23 41//41 42//42
f 23//23 42//42 24//24
f 24//24 42//42 43//43
f 24//24 43//43 25//25
f 25//25 43//43 44//44
f 25//25 44//44 26//26
f 26//26 44//44 45//45
f 26//26 45//45 27//27
f 27//27 45//45 46//46
f 27//27 46//46 28//28
f 28//28 46//46 47//47
f 28//28 47//47 29//29
f 29//29 47//47 48//48
f 29//29 48//48 30//30
f 30//30 48//48 49//49
f 30//30 49//49 31//31
f 31//31 49//49 50//50
f 31//31 50//50 32//32
f 32//32 50//50 51//51
f 32//32 51//51 33//33
f 33//33 51//51 52//52
f 33//33 52//52 34//34
f 34//34 52//52 53//53
f 34//34 53//53 35//35
f 35//35 53//53 54//54
f 35//35 54//54 36//36
f 36//36 54//54 37//37
f 36//36 37//37 19//19
f 37//37 55//55 56//56
f 37//37 56//56 38//38
f 38//38 56//56 57//57
f 38//38 57//57 39//39
f 39//39 57//57 58//58
f 39//39 58//58 40//40
f 40//40 58//58 59//59
f 40//40 59//59 41//41
f 41//41 59//59 60//60
f 41//41 60//60 42//42
f 42//42 60//60 61//61
f 42//42 61//61 43//43
f 43//43 61//61 62//62
f 43//43 62//62 44//44
f 44//44 62//62 63//63
f 44//44 63//63 45//45
f 45//45 63//63 64//64
f 45//45 64//64 46//46
f 46//46 64//64 65//65
f 46//46 65//65 47//47
f 47//47 65//65 66//66
f 47//47 66//66 48//48
f 48//48 66//66 67//67
f 48//48 67//67 49//49
f 49//49 67//67 68//68
f 49//49 68//68 50//50
f 50//50 68//68 69//69
f 50//50 69//69 51//51
f 51//51 69//69 70//70
f 51//51 70//70 52//52
f 52//52 70//70 71//71
f 52//52 71//71 53//53
f 53//53 71//71 72//72
f 53//53 72//72 54//54
f 54//54 72//72 55//55
f 54//54 55//55 37//37
f 55//55 73//73 74//74
f 55//55 74//74 56//56
f 56//56 74//74 75//75
f 56//56 75//75 57//57
f 57//57 75//75 76//76
f 57//57 76//76 58//58
f 58//58 76//76 77//77
f 58//58 77//77 59//59
f 59//59 77//77 78//78
f 59//59 78//78 60//60
f 60//60 78//78 79//79
f 60//60 79//79 61//61
f 61//61 79//79 80//80
f 61//61 80//80 62//62
f 62//62 80//80 81//81
f 62//62 81//81 63//63
f 63//63 81//81 82//82
f 63//63 82//82 64//64
f 64//64 82//82 83//83
f 64//64 83//83 65//65
f 65//65 83//83 84//84
f 65//65 84//84 66//66
f 66//66 84//84 85//85
f 66//66 85//85 67//67
f 67//67 85//85 86//86
f 67//67 86//86 68//68
f 68//68 86//86 87//87
f 68//68 87//87 69//69
f 69//69 87//87 88//88
f 69//69 88//88 70//70
f 70//70 88//88 89//89
f 70//70 89//89 71//71
f 71//71 89//89 90//90
f 71//71 90//90 72//72
f 72//72 90//90 73//73
f 72//72 73//73 55//55
f 73//73 91//91 92//92
f 73//73 92//92 74//74
f 74//74 92//92 93//93
f 74//74 93//93 75//75
f 75//75 93//93 94//94
f 75//75 94//94 76//76
f 76//76 94//94 95//95
f 76//76 95//95 77//77
f 77//77 95//95 96//96
f 77//77 96//96 78//78
f 78//78 96//96 97//97
f 78//78 97//97 79//79
f 79//79 97//97 98//98
f 79//79 98//98 80//80
f 80//80 98//98 99//99
f 80//80 99//99 81//81
f 81//81 99//99 100//100
f 81//81 100//100 82//82
f 82//82 100//100 101//101
f 82//82 101//101 83//83
f 83//83 101//101 102//102
f 83//83 102//102 84//84
f 84//84 102//102 103//103
f 84//84 103//103 85//85
f 85//85 103//103 104//104
f 85//85 104//104 86//86
f 86//86 104//104 105//105
f 86//86 105//105 87//87
f 87//87 105//105 106//106
f 87//87 106//106 88//88
f 88//88 106//106 107//107
f 88//88 107//107 89//89
f 89//89 107//107 108//108
f 89//89 108//108 90//90
f 90//90 108//108 91//91
f 90//90 91//91 73//73
f 91//91 109//109 110//110
f 91//91 110//110 92//92
f 92//92 110//110 111//111
f 92//92 111//111 93//93
f 93//93 111//111 112//112
f 93//93 112//112 94//94
f 94//94 112//112 113//113
f 94//94 113//113 95//95
f 95//95 113//113 114//114
f 95//95 114//114 96//96
f 96//96 114//114 115//115
f 96//96 115//115 97//97
f 97//97 115//115 116//116
f 97//97 116//116 98//98
f 98//98 116//116 117//117
f 98//98 117//117 99//99
f 99//99 117//117 118//118
f 99//99 118//118 100//100
f 100//100 118//118 119//119
f 100//100 119//119 101//101
f 101//101 119//119 120//120
f 101//101 120//120 102//102
f 102//102 120//120 121//121
f 102//102 121//121 103//103
f 103//103 121//121 122//122
f 103//103 122//122 104//104
f 104//104 122//122 123//123
f 104//104 123//123 105//105
f 105//105 123//123 124//124
f 105//105 124//124 106//106
f 106//106 124//124 125//125
f 106//106 125//125 107//107
f 107//107 125//125 126//126
f 107//107 126//126 108//108
f 108//108 126//126 109//109
f 108//108 109//109 91//91
f 109//109 127//127 128//128
f 109//109 128//128 110//110
f 110//110 128//128 129//129
f 110//110 129//129 111//111
f 111//111 129//129 130//130
f 111//111 130//130 112//112
f 112//112 130//130 131//131
f 112//112 131//131 113//113
f 113//113 131//131 132//132
f 113//113 132//132 114//114
f 114//114 132//132 133//133
f 114//114 133//133 115//115
f 115//115 133//133 134//134
f 115//115 134//134 116//116
f 116//116 134//134 135//135
f 116//116 135//135 117//117
f 117//117 135//135 136//136
f 117//117 136//136 118//118
f 118//118 136//136 137//137
f 118//118 137//137 119//119
f 119//119 137//137 138//138
f 119//119 138//138 120//120
f 120//120 138//138 139//139
f 120//120 139//139 121//121
f 121//121 139//139 140//140
f 121//121 140//140 122//122
f 122//122 140//140 141//141
f 122//122 141//141 123//123
f 123//123 141//141 142//142
f 123//123 142//142 124//124
f 124//124 142//142 143//143
f 124//124 143//143 125//125
f 125//125 143//143 144//144
f 125//125 144//144 126//126
f 126//126 144//144 127//127
f 126//126 127//127 109//109
f 127//127 145//145 146//146
f 127//127 146//146 128//128
f 128//128 146//146 147//147
f 128//128 147//147 129//129
f 129//129 147//147 148//148
f 129//129 148//148 130//130
f 130//130 148//148 149//149
f 130//130 149//149 131//131
f 131//131 149//149 150//150
f 131//131 150//150 132//132
f 132//132 150//150 151//151
f 132//132 151//151 133//133
f 133//133 151//151 152//152
f 133//133 152//152 134//134
f 134//134 152//152 153//153
f 134//134 153//153 135//135
f 135//135 153//153 154//154
f 135//135 154//154 136//136
f 136//136 154//154 155//155
f 136//136 155//155 137//137
f 137//137 155//155 156//156
f 137//137 156//156 138//138
f 138//138 156//156 157//157
f 138//138 157//157 139//139
f 139//139 157//157 158//158
f 139//139 158//158 140//140
f 140//140 158//158 159//159
f 140//140 159//159 141//141
f 141//141 159//159 160//160
f 141//141 160//160 142//142
f 142//142 160//160 161//161
f 142//142 161//161 143//143
f 143//143 161//161 162//162
f 143//143 162//162 144//144
f 144//144 162//162 145//145
f 144//144 145//145 127//127
f 145//145 163//163 164//164
f 145//145 164//164 146//146
f 146//146 164//164 165//165
f 146//146 165//165 147//147
f 147//147 165//165 166//166
f 147//147 166//166 148//148
f 148//148 166//166 167//167
f 148//148 167//167 149//149
f 149//149 167//167 168//168
f 149//149 168//168 150//150
f 150//150 168//168 169//169
f 150//150 169//169 151//151
f 151//151 169//169 170//170
f 151//151 170//170 152//152
f 152//152 170//170 171//171
f 152//152 171//171 153//153
f 153//153 171//171 172//172
f 153//153 172//172 154//154
f 154//154 172//172 173//173
f 154//154 173//173 155//155
f 155//155 173//173 174//174
f 155//155 174//174 156//156
f 156//156 174//174 175//175
f 156//156 175//175 157//157
f 157//157 175//175 176//176
f 157//157 176//176 158//158
f 158//158 176//176 177//177
f 158//158 177//177 159//159
f 159//159 177//177 178//178
f 159//159 178//178 160//160
f 160//160 178//178 179//179
f 160//160 179//179 161//161
f 161//161 179//179 180//180
f 161//161 180//180 162//162
f 162//162 180//180 163//163
f 162//162 163//163 145//145
f 163//163 181//181 182//182
f 163//163 182//182 164//164
f 164//164 182//182 183//183
f 164//164 183//183 165//165
f 165//165 183//183 184//184
f 165//165 184//184 166//166
f 166//166 184//184 185//185
f 166//166 185//185 167//167
f 167//167 185//185 186//186
f 167//167 186//186 168//168
f 168//168 186//186 187//187
f 168//168 187//187 169//169
f 169//169 187//187 188//188
f 169//169 188//188 170//170
f 170//170 188//188 189//189
f 170//170 189//189 171//171
f 171//171 189//189 190//190
f 171//171 190//190 172//172
f 172//172 190//190 191//191
f 172//172 191//191 173//173
f 173//173 191//191 192//192
f 173//173 192//192 174//174
f 174//174 192//192 193//193
f 174//174 193//193 175//175
f 175//175 193//193 194//194
f 175//175 194//194 176//176
f 176//176 194//194 195//195
f 176//176 195//195 177//177
f 177//177 195//195 196//196
f 177//177 196//196 178//178
f 178//178 196//196 197//197
f 178//178 197//197 179//179
f 179//179 197//197 198//198
f 179//179 198//198 180//180
f 180//180 198//198 181//181
f 180//180 181//181 163//163
f 181//181 199//199 200//200
f 181//181 200//200 182//182
f 182//182 200//200 201//201
f 182//182 201//201 183//183
f 183//183 201//201 202//202
f 183//183 202//202 184//184
f 184//184 202//202 203//203
f 184//184 203//203 185//185
f 185//185 203//203 204//204
f 185//185 204//204 186//186
f 186//186 204//204 205//205
f 186//186 205//205 187//187
f 187//187 205//205 206//206
f 187//187 206//206 188//188
f 188//188 206//206 207//207
f 188//188 207//207 189//189
f 189//189 207//207 208//208
f 189//189 208//208 190//190
f 190//190 208//208 209//209
f 190//190 209//209 191//191
f 191//191 209//209 210//210
f 191//191 210//210 192//192
f 192//192 210//210 211//211
f 192//192 211//211 193//193
f 193//193 211//211 212//212
f 193//193 212//212 194//194
f 194//194 212//212 213//213
f 194//194 213//213 195//195
f 195//195 213//213 214//214
f 195//195 214//214 196//196
f 196//196 214//214 215//215
f 196//196 215//215 197//197
f 197//197 215//215 216//216
f 197//197 216//216 198//198
f 198//198 216//216 199//199
f 198//198 199//199 181//181
f 199//199 217//217 218//218
f 199//199 218//218 200//200
f 200//200 218//218 219//219
f 200//200 219//219 201//201
f 201//201 219//219 220//220
f 201//201 220//220 202//202
f 202//202 220//220 221//221
f 202//202 221//221 203//203
f 203//203 221//221 222//222
f 203//203 222//222 204//204
f 204//204 222//222 223//223
f 204//204 223//223 205//205
f 205//205 223//223 224//224
f 205//205 224//224 206//206
f 206//206 224//224 225//225
f 206//206 225//225 207//207
f 207//207 225//225 226//226
f 207//207 226//226 208//208
f 208//208 226//226 227//227
f 208//208 227//227 209//209
f 209//209 227//227 228//228
f 209//209 228//228 210//210
f 210//210 228//228 229//229
f 210//210 229//229 211//211
f 211//211 229//229 230//230
f 211//211 230//230 212//212
f 212//212 230//230 231//231
f 212//212 231//231 213//213
f 213//213 231//231 232//232
f 213//213 232//232 214//214
f 214//214 232//232 233//233
f 214//214 233//233 215//215
f 215//215 233//233 234//234
f 215//215 234//234 216//216
f 216//216 234//234 217//217
f 216//216 217//217 199//199
f 217//217 235//235 236//236
f 217//217 236//236 218//218
f 218//218 236//236 237//237
f 218//218 237//237 219//219
f 219//219 237//237 238//238
f 219//219 238//238 220//220
f 220//220 238//238 239//239
f 220//220 239//239 221//221
f 221//221 239//239 240//240
f 221//221 240//240 222//222
f 222//222 240//240 241//241
f 222//222 241//241 223//223
f 223//223 241//241 242//242
f 223//223 242//242 224//224
f 224//224 242//242 243//243
f 224//224 243//243 225//225
f 225//225 243//243 244//244
f 225//225 244//244 226//226
f 226//226 244//244 245//245
f 226//226 245//245 227//227
f 227//227 245//245 246//246
f 227//227 246//246 228//228
f 228//228 246//246 247//247
f 228//228 247//247 229//229
f 229//229 247//247 248//248
f 229//229 248//248 230//230
f 230//230 248//248 249//249
f 230//230 249//249 231//231
f 231//231 249//249 250//250
f 231//231 250//250 232//232
f 232//232 250//250 251//251
f 232//232 251//251 233//233
f 233//233 251//251 252//252
f 233//233 252//252 234//234
f 234//234 252//252 235//235
f 234//234 235//235 217//217
f 235//235 253//253 254//254
f 235//235 254//254 236//236
f 236//236 254//254 255//255
f 236//236 255//255 237//237
f 237//237 255//255 256//256
f 237//237 256//256 238//238
f 238//238 256//256 257//257
f 238//238 257//257 239//239
f 239//239 257//257 258//258
f 239//239 258//258 240//240
f 240//240 258//258 259//259
f 240//240 259//259 241//241
f 241//241 259//259 260//260
f 241//241 260//260 242//242
f 242//242 260//260 261//261
f 242//242 261//261 243//243
f 243//243 261//261 262//262
f 243//243 262//262 244//244
f 244//244 262//262 263//263
f 244//244 263//263 245//245
f 245//245 263//263 264//264
f 245//245 264//264 246//246
f 246//246 264//264 265//265
f 246//246 265//265 247//247
f 247//247 265//265 266//266
f 247//247 266//266 248//248
f 248//248 266//266 267//267
f 248//248 267//267 249//249
f 249//249 267//267 268//268
f 249//249 268//268 250//250
f 250//250 268//268 269//269
f 250//250 269//269 251//251
f 251//251 269//269 270//270
f 251//251 270//270 252//252
f 252//252 270//270 253//253
f 252//252 253//253 235//235
f 253//253 271//271 272//272
f 253//253 272//272 254//254
f 254//254 272//272 273//273
f 254//254 273//273 255//255
f 255//255 273//273 274//274
f 255//255 274//274 256//256
f 256//256 274//274 275//275
f 256//256 275//275 257//257
f 257//257 275//275 276//276
f 257//257 276//276 258//258
f 258//258 276//276 277//277
f 258//258 277//277 259//259
f 259//259 277//277 278//278
f 259//259 278//278 260//260
f 260//260 278//278 279//279
f 260//260 279//279 261//261
f 261//261 279//279 280//280
f 261//261 280//280 262//262
f 262//262 280//280 281//281
f 262//262 281//281 263//263
f 263//263 281//281 282//282
f 263//263 282//282 264//264
f 264//264 282//282 283//283
f 264//264 283//283 265//265
f 265//265 283//283 284//284
f 265//265 284//284 266//266
f 266//266 284//284 285//285
f 266//266 285//285 267//267
f 267//267 285//285 286//286
f 267//267 286//286 268//268
f 268//268 286//286 287//287
f 268//268 287//287 269//269
f 269//269 287//287 288//288
f 269//269 288//288 270//270
f 270//270 288//288 271//271
f 270//270 271//271 253//253
f 271//271 289//289 290//290
f 271//271 290//290 272//272
f 272//272 290//290 291//291
f 272//272 291//291 273//273
f 273//273 291//291 292//292
f 273//273 292//292 274//274
f 274//274 292//292 293//293
f 274//274 293//293 275//275
f 275//275 293//293 294//294
f 275//275 294//294 276//276
f 276//276 294//294 295//295
f 276//276 295//295 277//277
f 277//277 295//295 296//296
f 277//277 296//296 278//278
f 278//278 296//296 297//297
f 278//278 297//297 279//279
f 279//279 297//297 298//298
f 279//279 298//298 280//280
f 280//280 298//298 299//299
f 280//280 299//299 281//281
f 281//281 299//299 300//300
f 281//281 300//300 282//282
f 282//282 300//300 301//301
f 282//282 301//301 283//283
f 283//283 301//301 302//302
f 283//283 302//302 284//284
f 284//284 302//302 303//303
f 284//284 303//303 285//285
f 285//285 303//303 304//304
f 285//285 304//304 286//286
f 286//286 304//304 305//305
f 286//286 305//305 287//287
f 287//287 305//305 306//306
f 287//287 306//306 288//288
f 288//288 306//306 289//289
f 288//288 289//289 271//271
f 289//289 307//307 308//308
f 289//289 308//308 290//290
f 290//290 308//308 309//309
f 290//290 309//309 291//291
f 291//291 309//309 310//310
f 291//291 310//310 292//292
f 292//292 310//310 311//311
f 292//292 311//311 293//293
f 293//293 311//311 312//312
f 293//293 312//312 294//294
f 294//294 312//312 313//313
f 294//294 313//313 295//295
f 295//295 313//313 314//314
f 295//295 314//314 296//296
f 296//296 314//314 315//315
f 296//296 315//315 297//297
f 297//297 315//315 316//316
f 297//297 316//316 298//298
f 298//298 316//316 317//317
f 298//298 317//317 299//299
f 299//299 317//317 318//318
f 299//299 318//318 300//300
f 300//300 318//318 319//319
f 300//300 319//319 301//301
f 301//301 319//319 320//320
f 301//301 320//320 302//302
f 302//302 320//320 321//321
f 302//302 321//321 303//303
f 303//303 321//321 322//322
f 303//303 322//322 304//304
f 304//304 322//322 323//323
f 304//304 323//323 305//305
f 305//305 323//323 324//324
f 305//305 324//324 306//306
f 306//306 324//324 307//307
f 306//306 307//307 289//289
f 307//307 325//325 326//326
f 307//307 326//326 308//308
f 308//308 326//326 327//327
f 308//308 327//327 309//309
f 309//309 327//327 328//328
f 309//309 328//328 310//310
f 310//310 328//328 329//329
f 310//310 329//329 311//311
f 311//311 329//329 330//330
f 311//311 330//330 312//312
f 312//312 330//330 331//331
f 312//312 331//331 313//313
f 313//313 331//331 332//332
f 313//313 332//332 314//314
f 314//314 332//332 333//333
f 314//314 333//333 315//315
f 315//315 333//333 334//334
f 315//315 334//334 316//316
f 316//316 334//334 335//335
f 316//316 335//335 317//317
f 317//317 335//335 336//336
f 317//317 336//336 318//318
f 318//318 336//336 337//337
f 318//318 337//337 319//319
f 319//319 337//337 338//338
f 319//319 338//338 320//320
f 320//320 338//338 339//339
f 320//320 339//339 321//321
f 321//321 339//339 340//340
f 321//321 340//340 322//322
f 322//322 340//340 341//341
f 322//322 341//341 323//323
f 323//323 341//341 342//342
f 323//323 342//342 324//324
f 324//324 342//342 325//325
f 324//324 325//325 307//307
f 325//325 343//343 344//344
f 325//325 344//344 326//326
f 326//326 344//344 345//345
f 326//326 345//345 327//327
f 327//327 345//345 346//346
f 327//327 346//346 328//328
f 328//328 346//346 347//347
f 328//328 347//347 329//329
f 329//329 347//347 348//348
f 329//329 348//348 330//330
f 330//330 348//348 349//349
f 330//330 349//349 331//331
f 331//331 349//349 350//350
f 331//331 350//350 332//332
f 332//332 350//350 351//351
f 332//332 351//351 333//333
f 333//333 351//351 352//352
f 333//333 352//352 334//334
f 334//334 352//352 353//353
f 334//334 353//353 335//335
f 335//335 353//353 354//354
f 335//335 354//354 336//336
f 336//336 354//354 355//355
f 336//336 355//355 337//337
f 337//337 355//355 356//356
f 337//337 356//356 338//338
f 338//338 356//356 357//357
f 338//338 357//357 339//339
f 339//339 357//357 358//358
f 339//339 358//358 340//340
f 340//340 358//358 359//359
f 340//340 359//359 341//341
f 341//341 359//359 360//360
f 341//341 360//360 342//342
f 342//342 360//360 343//343
f 342//342 343//343 325//325
f 343//343 361//361 362//362
f 343//343 362//362 344//344
f 344//344 362//362 363//363
f 344//344 363//363 345//345
f 345//345 363//363 364//364
f 345//345 364//364 346//346
f 346//346 364//364 365//365
f 346//346 365//365 347//347
f 347//347 365//365 366//366
f 347//347 366//366 348//348
f 348//348 366//366 367//367
f 348//348 367//367 349//349
f 349//349 367//367 368//368
f 349//349 368//368 350//350
f 350//350 368//368 369//369
f 350//350 369//369 351//351
f 351//351 369//369 370//370
f 351//351 370//370 352//352
f 352//352 370//370 371//371
f 352//352 371//371 353//353
f 353//353 371//371 372//372
f 353//353 372//372 354//354
f 354//354 372//372 373//373
f 354//354 373//373 355//355
f 355//355 373//373 374//374
f 355//355 374//374 356//356
f 356//356 374//374 375//375
f 356//356 375//375 357//357
f 357//357 375//375 376//376
f 357//357 376//376 358//358
f 358//358 376//376 377//377
f 358//358 377//377 359//359
f 359//359 377//377 378//378
f 359//359 378//378 360//360
f 360//360 378//378 361//361
f 360//360 361//361 343//343
f 361//361 379//379 380//380
f 361//361 380//380 362//362
f 362//362 380//380 381//381
f 362//362 381//381 363//363
f 363//363 381//381 382//382
f 363//363 382//382 364//364
f 364//364 382//382 383//383
f 364//364 383//383 365//365
f 365//365 383//383 384//384
f 365//365 384//384 366//366
f 366//366 384//384 385//385
f 366//366 385//385 367//367
f 367//367 385//385 386//386
f 367//367 386//386 368//368
f 368//368 386//386 387//387
f 368//368 387//387 369//369
f 369//369 387//387 388//388
f 369//369 388//388 370//370
f 370//370 388//388 389//389
f 370//370 389//389 371//371
f 371//371 389//389 390//390
f 371//371 390//390 372//372
f 372//372 390//390 391//391
f 372//372 391//391 373//373
f 373//373 391//391 392//392
f 373//373 392//392 374//374
f 374//374 392//392 393//393
f 374//374 393//393 375//375
f 375//375 393//393 394//394
f 375//375 394//394 376//376
f 376//376 394//394 395//395
f 376//376 395//395 377//377
f 377//377 395//395 396//396
f 377//377 396//396 378//378
f 378//378 396//396 379//379
f 378//378 379//379 361//361
f 379//379 397//397 398//398
f 379//379 398//398 380//380
f 380//380 398//398 399//399
f 380//380 399//399 381//381
f 381//381 399//399 400//400
f 381//381 400//400 382//382
f 382//382 400//400 401//401
f 382//382 401//401 383//383
f 383//383 401//401 402//402
f 383//383 402//402 384//384
f 384//384 402//402 403//403
f 384//384 403//403 385//385
f 385//385 403//403 404//404
f 385//385 404//404 386//386
f 386//386 404//404 405//405
f 386//386 405//405 387//387
f 387//387 405//405 406//406
f 387//387 406//406 388//388
f 388//388 406//406 407//407
f 388//388 407//407 389//389
f 389//389 407//407 408//408
f 389//389 408//408 390//390
f 390//390 408//408 409//409
f 390//390 409//409 391//391
f 391//391 409//409 410//410
f 391//391 410//410 392//392
f 392//392 410//410 411//411
f 392//392 411//411 393//393
f 393//393 411//411 412//412
f 393//393 412//412 394//394
f 394//394 412//412 413//413
f 394//394 413//413 395//395
f 395//395 413//413 414//414
f 395//395 414//414 396//396
f 396//396 414//414 397//397
f 396//396 397//397 379//379
f 397//397 415//415 416//416
f 397//397 416//416 398//398
f 398//398 416//416 417//417
f 398//398 417//417 399//399
f 399//399 417//417 418//418
f 399//399 418//418 400//400
f 400//400 418//418 419//419
f 400//400 419//419 401//401
f 401//401 419//419 420//420
f 401//401 420//420 402//402
f 402//402 420//420 421//421
f 402//402 421//421 403//403
f 403//403 421//421 422//422
f 403//403 422//422 404//404
f 404//404 422//422 423//423
f 404//404 423//423 405//405
f 405//405 423//423 424//424
f 405//405 424//424 406//406
f 406//406 424//424 425//425
f 406//406 425//425 407//407
f 407//407 425//425 426//426
f 407//407 426//426 408//408
f 408//408 426//426 427//427
f 408//408 427//427 409//409
f 409//409 427//427 428//428
f 409//409 428//428 410//410
f 410//410 428//428 429//429
f 410//410 429//429 411//411
f 411//411 429//429 430//430
f 411//411 430//430 412//412
f 412//412 430//430 431//431
f 412//412 431//431 413//413
f 413//413 431//431 432//432
f 413//413 432//432 414//414
f 414//414 432//432 415//415
f 414//414 415//415 397//397
f 415//415 433//433 434//434
f 415//415 434//434 416//416
f 416//416 434//434 435//435
f 416//416 435//435 417//417
f 417//417 435//435 436//436
f 417//417 436//436 418//418
f 418//418 436//436 437//437
f 418//418 437//437 419//419
f 419//419 437//437 438//438
f 419//419 438//438 420//420
f 420//420 438//438 439//439
f 420//420 439//439 421//421
f 421//421 439//439 440//440
f 421//421 440//440 422//422
f 422//422 440//440 441//441
f 422//422 441//441 423//423
f 423//423 441//441 442//442
f 423//423 442//442 424//424
f 424//424 442//442 443//443
f 424//424 443//443 425//425
f 425//425 443//443 444//444
f 425//425 444//444 426//426
f 426//426 444//444 445//445
f 426//426 445//445 427//427
f 427//427 445//445 446//446
f 427//427 446//446 428//428
f 428//428 446//446 447//447
f 428//428 447//447 429//429
f 429//429 447//447 448//448
f 429//429 448//448 430//430
f 430//430 448//448 449//449
f 430//430 449//449 431//431
f 431//431 449//449 450//450
f 431//431 450//450 432//432
f 432//432 450//450 433//433
f 432//432 433//433 415//415
f 433//433 451//451 452//452
f 433//433 452//452 434//434
f 434//434 452//452 453//453
f 434//434 453//453 435//435
f 435//435 453//453 454//454
f 435//435 454//454 436//436
f 436//436 454//454 455//455
f 436//436 455//455 437//437
f 437//437 455//455 456//456
f 437//437 456//456 438//438
f 438//438 456//456 457//457
f 438//438 457//457 439//439
f 439//439 457//457 458//458
f 439//439 458//458 440//440
f 440//440 458//458 459//459
f 440//440 459//459 441//441
f 441//441 459//459 460//460
f 441//441 460//460 442//442
f 442//442 460//460 461//461
f 442//442 461//461 443//443
f 443//443 461//461 462//462
f 443//443 462//462 444//444
f 444//444 462//462 463//463
f 444//444 463//463 445//445
f 445//445 463//463 464//464
f 445//445 464//464 446//446
f 446//446 464//464 465//465
f 446//446 465//465 447//447
f 447//447 465//465 466//466
f 447//447 466//466 448//448
f 448//448 466//466 467//467
f 448//448 467//467 449//449
f 449//449 467//467 468//468
f 449//449 468//468 450//450
f 450//450 468//468 451//451
f 450//450 451//451 433//433
f 451//451 469//469 470//470
f 451//451 470//470 452//452
f 452//452 470//470 471//471
f 452//452 471//471 453//453
f 453//453 471//471 472//472
f 453//453 472//472 454//454
f 454//454 472//472 473//473
f 454//454 473//473 455//455
f 455//455 473//473 474//474
f 455//455 474//474 456//456
f 456//456 474//474 475//475
f 456//456 475//475 457//457
f 457//457 475//475 476//476
f 457//457 476//476 458//458
f 458//458 476//476 477//477
f 458//458 477//477 459//459
f 459//459 477//477 478//478
f 459//459 478//478 460//460
f 460//460 478//478 479//479
f 460//460 479//479 461//461
f 461//461 479//479 480//480
f 461//461 480//480 462//462
f 462//462 480//480 481//481
f 462//462 481//481 463//463
f 463//463 481//481 482//482
f 463//463 482//482 464//464
f 464//464 482//482 483//483
f 464//464 483//483 465//465
f 465//465 483//483 484//484
f 465//465 484//484 466//466
f 466//466 484//484 485//485
f 466//466 485//485 467//467
f 467//467 485//485 486//486
f 467//467 486//486 468//468
f 468//468 486//486 469//469
f 468//468 469//469 451//451
f 469//469 487//487 488//488
f 469//469 488//488 470//470
f 470//470 488//488 489//489
f 470//470 489//489 471//471
f 471//471 489//489 490//490
f 471//471 490//490 472//472
f 472//472 490//490 491//491
f 472//472 491//491 473//473
f 473//473 491//491 492//492
f 473//473 492//492 474//474
f 474//474 492//492 493//493
f 474//474 493//493 475//475
f 475//475 493//493 494//494
f 475//475 494//494 476//476
f 476//476 494//494 495//495
f 476//476 495//495 477//477
f 477//477 495//495 496//496
f 477//477 496//496 478//478
f 478//478 496//496 497//497
f 478//478 497//497 479//479
f 479//479 497//497 498//498
f 479//479 498//498 480//480
f 480//480 498//498 499//499
f 480//480 499//499 481//481
f 481//481 499//499 500//500
f 481//481 500//500 482//482
f 482//482 500//500 501//501
f 482//482 501//501 483//483
f 483//483 501//501 502//502
f 483//483 502//502 484//484
f 484//484 502//502 503//503
f 484//484 503//503 485//485
f 485//485 503//503 504//504
f 485//485 504//504 486//486
f 486//486 504//504 487//487
f 486//486 487//487 469//469
f 487//487 505//505 506//506
f 487//487 506//506 488//488
f 488//488 506//506 507//507
f 488//488 507//507 489//489
f 489//489 507//507 508//508
f 489//489 508//508 490//490
f 490//490 508//508 509//509
f 490//490 509//509 491//491
f 491//491 509//509 510//510
f 491//491 510//510 492//492
f 492//492 510//510 511//511
f 492//492 511//511 493//493
f 493//493 511//511 512//512
f 493//493 512//512 494//494
f 494//494 512//512 513//513
f 494//494 513//513 495//495
f 495//495 513//513 514//514
f 495//495 514//514 496//496
f 496//496 514//514 515//515
f 496//496 515//515 497//497
f 497//497 515//515 516//516
f 497//497 516//516 498//498
f 498//498 516//516 517//517
f 498//498 517//517 499//499
f 499//499 517//517 518//518
f 499//499 518//518 500//500
f 500//500 518//518 519//519
f 500//500 519//519 501//501
f 501//501 519//519 520//520
f 501//501 520//520 502//502
f 502//502 520//520 521//521
f 502//502 521//521 503//503
f 503//503 521//521 522//522
f 503//503 522//522 504//504
f 504//504 522//522 505//505
f 504//504 505//505 487//487
f 505//505 523//523 524//524
f 505//505 524//524 506//506
f 506//506 524//524 525//525
f 506//506 525//525 507//507
f 507//507 525//525 526//526
f 507//507 526//526 508//508
f 508//508 526//526 527//527
f 508//508 527//527 509//509
f 509//509 527//527 528//528
f 509//509 528//528 510//510
f 510//510 528//528 529//529
f 510//510 529//529 511//511
f 511//511 529//529 530//530
f 511//511 530//530 512//512
f 512//512 530//530 531//531
f 512//512 531//531 513//513
f 513//513 531//531 532//532
f 513//513 532//532 514//514
f 514//514 532//532 533//533
f 514//514 533//533 515//515
f 515//515 533//533 534//534
f 515//515 534//534 516//516
f 516//516 534//534 535//535
f 516//516 535//535 517//517
f 517//517 535//535 536//536
f 517//517 536//536 518//518
f 518//518 536//536 537//537
f 518//518 537//537 519//519
f 519//519 537//537 538//538
f 519//519 538//538 520//520
f 520//520 538//538 539//539
f 520//520 539//539 521//521
f 521//521 539//539 540//540
f 521//521 540//540 522//522
f 522//522 540//540 523//523
f 522//522 523//523 505//505
f 523//523 541//541 542//542
f 523//523 542//542 524//524
f 524//524 542//542 543//543
f 524//524 543//543 525//525
f 525//525 543//543 544//544
f 525//525 544//544 526//526
f 526//526 544//544 545//545
f 526//526 545//545 527//527
f 527//527 545//545 546//546
f 527//527 546//546 528//528
f 528//528 546//546 547//547
f 528//528 547//547 529//529
f 529//529 547//547 548//548
f 529//529 548//548 530//530
f 530//530 548//548 549//549
f 530//530 549//549 531//531
f 531//531 549//549 550//550
f 531//531 550//550 532//532
f 532//532 550//550 551//551
f 532//532 551//551 533//533
f 533//533 551//551 552//552
f 533//533 552//552 534//534
f 534//534 552//552 553//553
f 534//534 553//553 535//535
f 535//535 553//553 554//554
f 535//535 554//554 536//536
f 536//536 554//554 555//555
f 536//536 555//555 537//537
f 537//537 555//555 556//556
f 537//537 556//556 538//538
f 538//538 556//556 557//557
f 538//538 557//557 539//539
f 539//539 557//557 558//558
f 539//539 558//558 540//540
f 540//540 558//558 541//541
f 540//540 541//541 523//523
f 541//541 559//559 560//560
f 541//541 560//560 542//542
f 542//542 560//560 561//561
f 542//542 561//561 543//543
f 543//543 561//561 562//562
f 543//543 562//562 544//544
f 544//544 562//562 563//563
f 544//544 563//563 545//545
f 545//545 563//563 564//564
f 545//545 564//564 546//546
f 546//546 564//564 565//565
f 546//546 565//565 547//547
f 547//547 565//565 566//566
f 547//547 566//566 548//548
f 548//548 566//566 567//567
f 548//548 567//567 549//549
f 549//549 567//567 568//568
f 549//549 568//568 550//550
f 550//550 568//568 569//569
f 550//550 569//569 551//551
f 551//551 569//569 570//570
f 551//551 570//570 552//552
f 552//552 570//570 571//571
f 552//552 571//571 553//553
f 553//553 571//571 572//572
f 553//553 572//572 554//554
f 554//554 572//572 573//573
f 554//554 573//573 555//555
f 555//555 573//573 574//574
f 555//555 574//574 556//556
f 556//556 574//574 575//575
f 556//556 575//575 557//557
f 557//557 575//575 576//576
f 557//557 576//576 558//558
f 558//558 576//576 559//559
f 558//558 559//559 541//541
f 559//559 577//577 578//578
f 559//559 578//578 560//560
f 560//560 578//578 579//579
f 560//560 579//579 561//561
f 561//561 579//579 580//580
f 561//561 580//580 562//562
f 562//562 580//580 581//581
f 562//562 581//581 563//563
f 563//563 581//581 582//582
f 563//563 582//582 564//564
f 564//564 582//582 583//583
f 564//564 583//583 565//565
f 565//565 583//583 584//584
f 565//565 584//584 566//566
f 566//566 584//584 585//585
f 566//566 585//585 567//567
f 567//567 585//585 586//586
f 567//567 586//586 568//568
f 568//568 586//586 587//587
f 568//568 587//587 569//569
f 569//569 587//587 588//588
f 569//569 588//588 570//570
f 570//570 588//588 589//589
f 570//570 589//589 571//571
f 571//571 589//589 590//590
f 571//571 590//590 572//572
f 572//572 590//590 591//591
f 572//572 591//591 573//573
f 573//573 591//591 592//592
f 573//573 592//592 574//574
f 574//574 592//592 593//593
f 574//574 593//593 575//575
f 575//575 593//593 594//594
f 575//575 594//594 576//576
f 576//576 594//594 577//577
f 576//576 577//577 559//559
f 577//577 595//595 596//596
f 577//577 596//596 578//578
f 578//578 596//596 597//597
f 578//578 597//597 579//579
f 579//579 597//597 598//598
f 579//579 598//598 580//580
f 580//580 598//598 599//599
f 580//580 599//599 581//581
f 581//581 599//599 600//600
f 581//581 600//600 582//582
f 582//582 600//600 601//601
f 582//582 601//601 583//583
f 583//583 601//601 602//602
f 583//583 602//602 584//584
f 584//584 602//602 603//603
f 584//584 603//603 585//585
f 585//585 603//603 604//604
f 585//585 604//604 586//586
f 586//586 604//604 605//605
f 586//586 605//605 587//587
f 587//587 605//605 606//606
f 587//587 606//606 588//588
f 588//588 606//606 607//607
f 588//588 607//607 589//589
f 589//589 607//607 608//608
f 589//589 608//608 590//590
f 590//590 608//608 609//609
f 590//590 609//609 591//591
f 591//591 609//609 610//610
f 591//591 610//610 592//592
f 592//592 610//610 611//611
f 592//592 611//611 593//593
f 593//593 611//611 612//612
f 593//593 612//612 594//594
f 594//594 612//612 595//595
f 594//594 595//595 577//577
f 595//595 613//613 614//614
f 595//595 614//614 596//596
f 596//596 614//614 615//615
f 596//596 615//615 597//597
f 597//597 615//615 616//616
f 597//597 616//616 598//598
f 598//598 616//616 617//617
f 598//598 617//617 599//599
f 599//599 617//617 618//618
f 599//599 618//618 600//600
f 600//600 618//618 619//619
f 600//600 619//619 601//601
f 601//601 619//619 620//620
f 601//601 620//620 602//602
f 602//602 620//620 621//621
f 602//602 621//621 603//603
f 603//603 621//621 622//622
f 603//603 622//622 604//604
f 604//604 622//622 623//623
f 604//604 623//623 605//605
f 605//605 623//623 624//624
f 605//605 624//624 606//606
f 606//606 624//624 625//625
f 606//606 625//625 607//607
f 607//607 625//625 626//626
f 607//607 626//626 608//608
f 608//608 626//626 627//627
f 608//608 627//627 609//609
f 609//609 627//627 628//628
f 609//609 628//628 610//610
f 610//610 628//628 629//629
f 610//610 629//629 611//611
f 611//611 629//629 630//630
f 611//611 630//630 612//612
f 612//612 630//630 613//613
f 612//612 613//613 595//595
f 613//613 631//631 632//632
f 613//613 632//632 614//614
f 614//614 632//632 633//633
f 614//614 633//633 615//615
f 615//615 633//633 634//634
f 615//615 634//634 616//616
f 616//616 634//634 635//635
f 616//616 635//635 617//617
f 617//617 635//635 636//636
f 617//617 636//636 618//618
f 618//618 636//636 637//637
f 618//618 637//637 619//619
f 619//619 637//637 638//638
f 619//619 638//638 620//620
f 620//620 638//638 639//639
f 620//620 639//639 621//621
f 621//621 639//639 640//640
f 621//621 640//640 622//622
f 622//622 640//640 641//641
f 622//622 641//641 623//623
f 623//623 641//641 642//642
f 623//623 642//642 624//624
f 624//624 642//642 643//643
f 624//624 643//643 625//625
f 625//625 643//643 644//644
f 625//625 644//644 626//626
f 626//626 644//644 645//645
f 626//626 645//645 627//627
f 627//627 645//645 646//646
f 627//627 646//646 628//628
f 628//628 646//646 647//647
f 628//628 647//647 629//629
f 629//629 647//647 648//648
f 629//629 648//648 630//630
f 630//630 648//648 631//631
f 630//630 631//631 613//613
f 631//631 1//1 2//2
f 631//631 2//2 632//632
f 632//632 2//2 3//3
f 632//632 3//3 633//633
f 633//633 3//3 4//4
f 633//633 4//4 634//634
f 634//634 4//4 5//5
f 634//634 5//5 635//635
f 635//635 5//5 6//6
f 635//635 6//6 636//636
f 636//636 6//6 7//7
f 636//636 7//7 637//637
f 637//637 7//7 8//8
f 637//637 8//8 638//638
f 638//638 8//8 9//9
f 638//638 9//9 639//639
f 639//639 9//9 10//10
f 639//639 10//10 640//640
f 640//640 10//10 11//11
f 640//640 11//11 641//641
f 641//641 11//11 12//12
f 641//641 12//12 642//642
f 642//642 12//12 13//13
f 642//642 13//13 643//643
f 643//643 13//13 14//14
f 643//643 14//14 644//644
f 644//644 14//14 15//15
f 644//644 15//15 645//645
f 645//645 15//15 16//16
f 645//645 16//16 646//646
f 646//646 16//16 17//17
f 646//646 17//17 647//647
f 647//647 17//17 18//18
f 647//647 18//18 648//648
f 648//648 18//18 1//1
f 648//648 1//1 631//631
