o convex_0
v -0.003632 -0.006397 0.000750
v -0.007523 -0.000303 -0.000047
v -0.007523 -0.000303 0.000047
v -0.004476 -0.000021 -0.000187
v -0.003491 -0.005319 -0.001500
v -0.005648 -0.000021 0.001500
v -0.006445 -0.003772 0.000562
v -0.006492 -0.000021 -0.001453
v -0.003444 -0.004428 0.001500
v -0.006117 -0.003818 -0.000985
v -0.006351 -0.002319 0.001360
v -0.003444 -0.003725 -0.001266
v -0.004710 -0.005788 -0.000562
v -0.005367 -0.000021 -0.001406
v -0.007195 -0.000022 0.000984
v -0.003444 -0.003163 0.000844
v -0.004429 -0.005225 0.001313
v -0.007101 -0.002225 -0.000563
v -0.004757 -0.000021 0.000938
v -0.003444 -0.006585 -0.000515
v -0.006351 -0.002319 -0.001360
v -0.007289 -0.001522 0.000563
v -0.005835 -0.004803 0.000047
v -0.007195 -0.000022 -0.000984
v -0.003444 -0.005319 0.001500
v -0.004429 -0.005225 -0.001313
v -0.004710 -0.005788 0.000562
v -0.006351 -0.000256 0.001500
v -0.003444 -0.002788 -0.000047
v -0.004757 -0.000021 -0.000938
v -0.005507 -0.004615 0.001031
v -0.005226 -0.003631 0.001500
v -0.005507 -0.003210 -0.001500
v -0.007054 -0.002694 -0.000047
v -0.005648 -0.000021 -0.001500
v -0.003444 -0.004428 -0.001500
v -0.006445 -0.003772 -0.000562
v -0.006773 -0.002507 0.000984
v -0.004523 -0.000021 0.000469
v -0.007101 -0.001288 -0.000984
v -0.003585 -0.006163 -0.001078
v -0.003491 -0.006679 0.000047
v -0.003444 -0.003163 -0.000844
v -0.005648 -0.004803 -0.000656
v -0.005179 -0.000021 0.001313
v -0.007382 -0.001334 -0.000328
v -0.006773 -0.002507 -0.000984
v -0.005226 -0.004428 -0.001313
v -0.003444 -0.006022 0.001219
v -0.006726 -0.001241 0.001313
v -0.005882 -0.003490 0.001313
v -0.003444 -0.003913 0.001360
v -0.004804 -0.005835 -0.000047
v -0.007476 -0.000022 -0.000422
v -0.004616 -0.005506 -0.001031
v -0.005788 -0.004710 0.000562
v -0.004616 -0.005554 0.000985
v -0.007008 -0.002600 0.000516
v -0.006492 -0.003865 0.000047
v -0.006726 -0.001241 -0.001313
v -0.006257 -0.001194 -0.001500
v -0.007101 -0.001288 0.000984
v -0.006211 -0.003678 0.000985
v -0.007429 -0.000022 0.000563
f 22 62 64 
f 6 4 8 
f 8 4 14 
f 9 12 16 
f 4 6 19 
f 12 9 20 
f 9 6 25 
f 20 9 25 
f 6 15 28 
f 25 6 28 
f 16 12 29 
f 14 4 30 
f 12 14 30 
f 17 25 32 
f 28 11 32 
f 25 28 32 
f 8 14 35 
f 5 33 35 
f 14 12 36 
f 20 5 36 
f 12 20 36 
f 35 14 36 
f 5 35 36 
f 34 18 37 
f 4 19 39 
f 19 16 39 
f 29 4 39 
f 16 29 39 
f 5 20 41 
f 20 13 41 
f 26 5 41 
f 13 20 42 
f 1 27 42 
f 4 29 43 
f 29 12 43 
f 30 4 43 
f 12 30 43 
f 37 10 44 
f 23 37 44 
f 6 9 45 
f 19 6 45 
f 3 2 46 
f 22 3 46 
f 18 34 46 
f 34 22 46 
f 40 18 46 
f 21 10 47 
f 10 37 47 
f 37 18 47 
f 18 40 47 
f 10 21 48 
f 5 26 48 
f 33 5 48 
f 21 33 48 
f 44 10 48 
f 25 17 49 
f 20 25 49 
f 42 20 49 
f 1 42 49 
f 28 15 50 
f 11 28 50 
f 38 11 50 
f 31 17 51 
f 17 32 51 
f 32 11 51 
f 11 38 51 
f 9 16 52 
f 16 19 52 
f 45 9 52 
f 19 45 52 
f 27 23 53 
f 13 42 53 
f 42 27 53 
f 44 13 53 
f 23 44 53 
f 2 3 54 
f 8 24 54 
f 24 40 54 
f 46 2 54 
f 40 46 54 
f 41 13 55 
f 26 41 55 
f 13 44 55 
f 48 26 55 
f 44 48 55 
f 7 23 56 
f 23 27 56 
f 31 56 57 
f 27 1 57 
f 17 31 57 
f 1 49 57 
f 49 17 57 
f 56 27 57 
f 22 34 58 
f 7 38 58 
f 38 22 58 
f 23 7 59 
f 37 23 59 
f 34 37 59 
f 58 34 59 
f 7 58 59 
f 24 8 60 
f 40 24 60 
f 21 47 60 
f 47 40 60 
f 33 21 61 
f 8 35 61 
f 35 33 61 
f 60 8 61 
f 21 60 61 
f 22 38 62 
f 50 15 62 
f 38 50 62 
f 38 7 63 
f 31 51 63 
f 51 38 63 
f 7 56 63 
f 56 31 63 
f 6 8 64 
f 15 6 64 
f 3 22 64 
f 54 3 64 
f 8 54 64 
f 62 15 64 
o convex_1
v -0.002928 -0.005648 -0.001500
v -0.003397 -0.004476 0.001500
v -0.003397 -0.004288 0.001453
v -0.000490 -0.005600 0.001500
v -0.003397 -0.002975 -0.000515
v -0.000490 -0.005132 -0.001313
v -0.001334 -0.007429 0.000047
v -0.003444 -0.006538 0.000656
v -0.000490 -0.004523 0.000562
v -0.000490 -0.007148 -0.000985
v -0.003444 -0.006351 -0.000938
v -0.000490 -0.006773 0.001313
v -0.003444 -0.003210 0.000844
v -0.003444 -0.003960 -0.001360
v -0.003444 -0.005506 0.001453
v -0.000490 -0.006304 -0.001500
v -0.000490 -0.004476 -0.000422
v -0.002365 -0.006773 0.001031
v -0.000490 -0.007383 0.000610
v -0.002600 -0.007007 -0.000515
v -0.003397 -0.002881 0.000140
v -0.001944 -0.006538 -0.001313
v -0.000490 -0.005132 0.001313
v -0.003444 -0.004476 -0.001500
v -0.002084 -0.006022 0.001500
v -0.002600 -0.007007 0.000515
v -0.000490 -0.005600 -0.001500
v -0.003444 -0.003397 -0.001031
v -0.000490 -0.004757 -0.000985
v -0.003397 -0.006726 -0.000047
v -0.000537 -0.007429 -0.000469
v -0.003444 -0.005788 -0.001360
v -0.001287 -0.007101 -0.000985
v -0.003397 -0.003773 0.001266
v -0.001287 -0.007101 0.000985
v -0.003444 -0.005976 0.001266
v -0.002318 -0.006351 0.001360
v -0.000490 -0.004757 0.000985
v -0.003397 -0.003023 0.000610
v -0.002506 -0.006726 -0.001031
v -0.000490 -0.006304 0.001500
v -0.000490 -0.004429 0.000140
v -0.001334 -0.007336 -0.000562
v -0.001334 -0.007336 0.000562
v -0.002553 -0.007101 -0.000094
v -0.000912 -0.006679 -0.001360
v -0.003397 -0.003397 0.001031
v -0.001287 -0.006632 0.001360
v -0.003397 -0.002881 -0.000140
v -0.002084 -0.006022 -0.001500
v -0.003444 -0.003960 0.001360
v -0.000490 -0.007477 0.000187
v -0.003444 -0.006585 -0.000562
v -0.003397 -0.003397 -0.001031
v -0.003210 -0.006445 0.000985
v -0.003350 -0.005882 -0.001360
v -0.003444 -0.005319 -0.001500
v -0.003444 -0.005319 0.001500
v -0.003397 -0.003210 -0.000844
v -0.000490 -0.007148 0.000985
f 99 83 124 
f 67 66 68 
f 68 70 73 
f 70 68 74 
f 74 68 76 
f 75 72 77 
f 75 77 78 
f 77 72 79 
f 70 74 80 
f 73 70 81 
f 74 76 83 
f 68 73 87 
f 75 78 88 
f 80 65 88 
f 68 66 89 
f 78 70 91 
f 70 80 91 
f 88 78 91 
f 80 88 91 
f 78 77 92 
f 69 81 93 
f 81 70 93 
f 90 72 94 
f 75 88 96 
f 79 72 100 
f 89 79 101 
f 79 100 101 
f 100 82 101 
f 87 73 102 
f 73 85 103 
f 85 77 103 
f 102 73 103 
f 84 75 104 
f 97 84 104 
f 86 97 104 
f 76 68 105 
f 68 89 105 
f 73 81 106 
f 85 73 106 
f 95 71 107 
f 74 95 107 
f 84 97 107 
f 97 74 107 
f 82 90 108 
f 90 71 108 
f 99 82 108 
f 83 99 108 
f 71 90 109 
f 94 84 109 
f 90 94 109 
f 107 71 109 
f 84 107 109 
f 80 74 110 
f 97 86 110 
f 74 97 110 
f 98 87 111 
f 87 102 111 
f 103 77 111 
f 102 103 111 
f 99 76 112 
f 82 99 112 
f 89 101 112 
f 101 82 112 
f 76 105 112 
f 105 89 112 
f 81 69 113 
f 77 85 113 
f 69 92 113 
f 92 77 113 
f 106 81 113 
f 85 106 113 
f 65 80 114 
f 80 110 114 
f 110 86 114 
f 66 67 115 
f 67 68 115 
f 77 79 115 
f 68 87 115 
f 87 98 115 
f 111 77 115 
f 98 111 115 
f 74 83 116 
f 71 95 116 
f 95 74 116 
f 108 71 116 
f 83 108 116 
f 72 75 117 
f 75 84 117 
f 94 72 117 
f 84 94 117 
f 70 78 118 
f 78 92 118 
f 93 70 118 
f 72 90 119 
f 90 82 119 
f 100 72 119 
f 82 100 119 
f 75 96 120 
f 104 75 120 
f 86 104 120 
f 65 114 120 
f 114 86 120 
f 88 65 121 
f 96 88 121 
f 65 120 121 
f 120 96 121 
f 89 66 122 
f 79 89 122 
f 66 115 122 
f 115 79 122 
f 92 69 123 
f 69 93 123 
f 118 92 123 
f 93 118 123 
f 83 76 124 
f 76 99 124 
o convex_2
v -0.006679 0.003402 -0.000140
v 0.000073 0.007528 0.000140
v 0.000073 0.007481 0.000375
v 0.000073 0.004527 -0.000469
v -0.004475 0.003402 0.001500
v -0.004475 0.003402 -0.001500
v -0.003772 0.006543 0.000094
v 0.000073 0.006496 -0.001453
v 0.000073 0.006356 0.001500
v -0.003678 0.006168 -0.001031
v -0.004101 0.005465 0.001313
v 0.000073 0.004762 0.000938
v -0.002882 0.003402 0.000187
v -0.002319 0.006824 0.000985
v -0.005225 0.004293 -0.001360
v -0.006210 0.003683 0.000985
v -0.001335 0.007340 -0.000562
v 0.000073 0.005278 -0.001360
v -0.005788 0.004855 -0.000094
v -0.002225 0.005980 -0.001500
v -0.004757 0.005652 0.000703
v 0.000073 0.005371 0.001406
v -0.005319 0.003402 0.001500
v -0.006163 0.003449 -0.001125
v -0.003397 0.003402 -0.001031
v -0.002225 0.005980 0.001500
v -0.001335 0.007340 0.000562
v -0.004757 0.005652 -0.000703
v -0.000256 0.007152 -0.001031
v -0.000162 0.006824 0.001313
v 0.000073 0.005652 -0.001500
v -0.003397 0.003402 0.001031
v 0.000073 0.004480 0.000234
v -0.002506 0.006731 -0.001031
v -0.002553 0.007106 -0.000047
v -0.005554 0.004621 -0.000985
v 0.000073 0.004762 -0.000938
v -0.005319 0.003402 -0.001500
v -0.005507 0.004621 0.001031
v -0.004101 0.005371 -0.001360
v -0.003678 0.006402 0.000703
v -0.002319 0.006355 -0.001360
v -0.003772 0.006449 -0.000515
v -0.004851 0.005792 -0.000094
v -0.005742 0.004808 0.000469
v -0.006492 0.003683 -0.000562
v -0.006586 0.003449 0.000562
v 0.000073 0.007434 -0.000562
v -0.002553 0.007012 0.000562
v -0.002413 0.006402 0.001313
v -0.002976 0.003402 -0.000562
v 0.000073 0.007200 0.000985
v -0.004851 0.004152 0.001500
v -0.001335 0.007434 -0.000047
v 0.000073 0.005652 0.001500
v -0.003678 0.006168 0.001031
v -0.001288 0.007059 0.001031
v -0.002553 0.007012 -0.000562
v -0.004147 0.004856 -0.001500
v -0.005976 0.003402 0.001266
v -0.001194 0.006731 -0.001313
v -0.003960 0.003402 -0.001360
v -0.003960 0.003402 0.001360
v -0.006539 0.003777 0.000094
f 171 169 188 
f 126 127 128 
f 129 125 130 
f 126 128 132 
f 128 127 133 
f 128 133 136 
f 129 130 137 
f 132 128 142 
f 136 133 146 
f 125 129 147 
f 129 133 147 
f 137 130 149 
f 147 133 150 
f 127 126 151 
f 150 133 154 
f 142 130 155 
f 132 142 155 
f 130 144 155 
f 144 132 155 
f 129 137 156 
f 156 137 157 
f 128 136 157 
f 136 156 157 
f 141 153 158 
f 139 148 160 
f 152 134 160 
f 143 152 160 
f 142 128 161 
f 128 149 161 
f 130 125 162 
f 144 130 162 
f 125 148 162 
f 148 139 162 
f 160 134 164 
f 139 160 164 
f 131 145 165 
f 134 158 166 
f 164 134 166 
f 144 164 166 
f 134 152 167 
f 131 159 167 
f 145 131 168 
f 152 143 168 
f 131 167 168 
f 167 152 168 
f 140 163 169 
f 163 145 169 
f 145 168 169 
f 168 143 169 
f 148 125 170 
f 143 160 170 
f 160 148 170 
f 140 169 171 
f 126 132 172 
f 132 153 172 
f 153 141 172 
f 138 151 173 
f 159 131 173 
f 151 159 173 
f 165 138 173 
f 131 165 173 
f 135 150 174 
f 150 154 174 
f 149 128 175 
f 137 149 175 
f 157 137 175 
f 128 157 175 
f 133 127 176 
f 127 151 176 
f 154 133 176 
f 150 135 177 
f 147 150 177 
f 135 163 177 
f 151 126 178 
f 159 151 178 
f 141 159 178 
f 126 172 178 
f 172 141 178 
f 133 129 179 
f 129 146 179 
f 146 133 179 
f 163 135 180 
f 145 163 180 
f 138 165 180 
f 165 145 180 
f 135 174 180 
f 174 138 180 
f 151 138 181 
f 174 154 181 
f 138 174 181 
f 176 151 181 
f 154 176 181 
f 158 134 182 
f 141 158 182 
f 159 141 182 
f 134 167 182 
f 167 159 182 
f 144 162 183 
f 162 139 183 
f 164 144 183 
f 139 164 183 
f 125 147 184 
f 163 140 184 
f 171 125 184 
f 140 171 184 
f 147 177 184 
f 177 163 184 
f 132 144 185 
f 153 132 185 
f 158 153 185 
f 144 166 185 
f 166 158 185 
f 130 142 186 
f 149 130 186 
f 142 161 186 
f 161 149 186 
f 146 129 187 
f 136 146 187 
f 129 156 187 
f 156 136 187 
f 169 143 188 
f 170 125 188 
f 143 170 188 
f 125 171 188 
o convex_3
v 0.006637 0.003495 0.000281
v 0.003402 0.002886 -0.000187
v 0.003402 0.002886 0.000187
v 0.003402 0.006684 -0.000140
v 0.006355 -0.000021 -0.001500
v 0.005652 -0.000021 0.001500
v 0.003402 0.005323 0.001500
v 0.003496 0.005323 -0.001500
v 0.004574 -0.000021 -0.000610
v 0.007199 0.000167 0.000985
v 0.006684 0.002699 -0.000985
v 0.005324 0.004292 0.001313
v 0.007481 -0.000021 -0.000422
v 0.004855 0.005699 -0.000469
v 0.004762 -0.000021 0.000938
v 0.003402 0.003964 -0.001360
v 0.004762 0.005745 0.000562
v 0.005231 0.004292 -0.001360
v 0.006355 0.002323 0.001360
v 0.005371 -0.000021 -0.001406
v 0.003402 0.003964 0.001360
v 0.007387 0.001386 0.000234
v 0.003496 0.006261 0.001031
v 0.005746 0.004761 -0.000562
v 0.006355 -0.000021 0.001500
v 0.003402 0.006167 -0.001125
v 0.006731 0.001198 -0.001313
v 0.006777 0.002558 0.000938
v 0.007012 0.002558 -0.000562
v 0.005746 0.004761 0.000562
v 0.004527 -0.000021 0.000469
v 0.005652 0.002933 -0.001500
v 0.005512 0.003214 0.001500
v 0.004574 0.005464 -0.001078
v 0.007199 0.000167 -0.000985
v 0.003402 0.004480 -0.001500
v 0.007340 0.001339 -0.000563
v 0.007481 -0.000021 0.000422
v 0.006262 0.003589 0.000985
v 0.004574 0.005464 0.001078
v 0.003402 0.003402 0.001031
v 0.004808 -0.000021 -0.000985
v 0.005793 0.004855 0.000047
v 0.006403 0.003823 -0.000562
v 0.007106 0.002558 0.000047
v 0.005605 0.004479 -0.001031
v 0.003402 0.003402 -0.001031
v 0.005184 -0.000021 0.001313
v 0.007059 0.001292 0.001031
v 0.003777 0.006543 0.000047
v 0.003824 0.006402 -0.000562
v 0.003402 0.004480 0.001500
v 0.006074 0.003121 -0.001313
v 0.005652 -0.000021 -0.001500
v 0.004293 0.005230 0.001360
v 0.007012 0.002558 0.000562
v 0.004480 -0.000021 -0.000187
v 0.006824 -0.000021 0.001313
v 0.005512 0.004667 0.000985
v 0.004855 0.005792 -0.000047
v 0.007340 0.001339 0.000563
v 0.007059 0.001292 -0.001031
v 0.006543 0.003776 -0.000047
v 0.003402 0.006590 0.000562
f 205 238 252 
f 190 191 192 
f 192 191 195 
f 193 194 197 
f 194 193 201 
f 197 194 203 
f 190 192 204 
f 193 197 208 
f 195 191 209 
f 195 194 213 
f 194 201 213 
f 204 192 214 
f 197 203 219 
f 193 196 220 
f 196 206 220 
f 215 193 220 
f 207 200 221 
f 195 213 221 
f 213 207 221 
f 206 196 222 
f 202 212 222 
f 196 214 222 
f 201 193 223 
f 193 215 223 
f 196 193 224 
f 208 204 224 
f 204 214 224 
f 214 196 224 
f 210 201 225 
f 201 223 225 
f 201 210 226 
f 213 201 226 
f 200 207 227 
f 207 216 227 
f 189 218 227 
f 205 211 228 
f 209 191 229 
f 203 209 229 
f 191 219 229 
f 219 203 229 
f 208 197 230 
f 204 208 230 
f 212 202 231 
f 205 218 231 
f 217 199 232 
f 210 225 233 
f 225 217 233 
f 206 222 234 
f 222 212 234 
f 232 199 234 
f 212 232 234 
f 197 190 235 
f 190 204 235 
f 230 197 235 
f 204 230 235 
f 203 194 236 
f 209 203 236 
f 216 207 237 
f 214 192 239 
f 202 222 239 
f 222 214 239 
f 192 238 239 
f 194 195 240 
f 195 209 240 
f 236 194 240 
f 209 236 240 
f 199 215 241 
f 220 206 241 
f 215 220 241 
f 234 199 241 
f 206 234 241 
f 193 208 242 
f 224 193 242 
f 208 224 242 
f 211 195 243 
f 195 221 243 
f 221 200 243 
f 200 228 243 
f 228 211 243 
f 189 227 244 
f 227 216 244 
f 233 189 244 
f 191 190 245 
f 190 197 245 
f 219 191 245 
f 197 219 245 
f 207 213 246 
f 226 198 246 
f 213 226 246 
f 198 237 246 
f 237 207 246 
f 218 205 247 
f 200 227 247 
f 227 218 247 
f 228 200 247 
f 205 228 247 
f 231 202 248 
f 205 231 248 
f 238 205 248 
f 202 239 248 
f 239 238 248 
f 198 226 249 
f 226 210 249 
f 210 233 249 
f 237 198 249 
f 216 237 249 
f 244 216 249 
f 233 244 249 
f 215 199 250 
f 199 217 250 
f 223 215 250 
f 217 225 250 
f 225 223 250 
f 218 189 251 
f 212 231 251 
f 231 218 251 
f 232 212 251 
f 217 232 251 
f 189 233 251 
f 233 217 251 
f 192 195 252 
f 195 211 252 
f 211 205 252 
f 238 192 252 
o convex_4
v 0.001432 -0.005414 -0.001500
v 0.001526 -0.005414 0.001500
v 0.001526 -0.005132 0.001406
v -0.000490 -0.005601 0.001500
v 0.001338 -0.007429 -0.000047
v -0.000490 -0.005132 -0.001313
v -0.000490 -0.007195 -0.000938
v 0.001526 -0.004195 0.000094
v -0.000490 -0.007195 0.000938
v -0.000490 -0.004523 0.000562
v 0.001526 -0.006632 0.001313
v 0.001526 -0.006538 -0.001360
v -0.000490 -0.006304 -0.001500
v 0.001526 -0.004288 -0.000562
v -0.000490 -0.004523 -0.000562
v -0.000256 -0.006351 0.001500
v -0.000302 -0.007523 0.000047
v 0.001526 -0.007289 0.000562
v 0.001338 -0.004570 0.000985
v 0.001526 -0.007289 -0.000562
v 0.001526 -0.004804 -0.001219
v -0.000490 -0.004898 0.001125
v 0.000213 -0.006820 -0.001313
v 0.000307 -0.007429 -0.000562
v 0.001291 -0.007101 -0.000985
v 0.000213 -0.007195 0.000985
v -0.000490 -0.004757 -0.000985
v 0.001526 -0.006163 -0.001500
v -0.000490 -0.004429 -0.000140
v -0.000490 -0.005601 -0.001500
v 0.001526 -0.006163 0.001500
v 0.000307 -0.007429 0.000562
v -0.000396 -0.006726 0.001360
v 0.001526 -0.004288 0.000562
v -0.000490 -0.007429 -0.000469
v 0.001291 -0.007101 0.000985
v 0.000916 -0.006679 0.001360
v -0.000490 -0.005132 0.001313
v 0.001526 -0.004804 0.001219
v 0.001479 -0.004476 -0.000891
v -0.000490 -0.007429 0.000469
v 0.000213 -0.007195 -0.000985
v -0.000396 -0.006726 -0.001360
v 0.001526 -0.005132 -0.001406
v -0.000490 -0.004757 0.000985
v 0.000307 -0.007523 -0.000047
v -0.000490 -0.004429 0.000140
v -0.000490 -0.006304 0.001500
v 0.000916 -0.006679 -0.001360
f 275 295 301 
f 254 255 256 
f 256 258 259 
f 255 254 260 
f 256 259 261 
f 258 256 262 
f 260 254 263 
f 260 263 264 
f 259 258 265 
f 260 264 266 
f 258 262 267 
f 254 256 268 
f 264 263 270 
f 270 257 272 
f 264 270 272 
f 266 264 273 
f 262 256 274 
f 272 257 276 
f 264 272 277 
f 272 276 277 
f 258 267 279 
f 267 266 279 
f 273 258 279 
f 265 253 280 
f 273 264 280 
f 260 266 281 
f 267 262 281 
f 266 267 281 
f 253 265 282 
f 265 258 282 
f 263 254 283 
f 254 268 283 
f 257 270 284 
f 278 261 284 
f 261 278 285 
f 255 260 286 
f 261 259 287 
f 259 276 287 
f 270 263 288 
f 284 270 288 
f 278 284 288 
f 263 283 289 
f 283 268 289 
f 268 285 289 
f 285 278 289 
f 288 263 289 
f 278 288 289 
f 256 255 290 
f 274 256 290 
f 274 290 291 
f 271 274 291 
f 255 286 291 
f 286 271 291 
f 290 255 291 
f 266 273 292 
f 279 266 292 
f 273 279 292 
f 269 284 293 
f 284 261 293 
f 261 287 293 
f 287 269 293 
f 276 259 294 
f 277 276 294 
f 275 277 294 
f 259 265 295 
f 294 259 295 
f 275 294 295 
f 258 273 296 
f 280 253 296 
f 273 280 296 
f 253 282 296 
f 282 258 296 
f 262 274 297 
f 274 271 297 
f 286 262 297 
f 271 286 297 
f 276 257 298 
f 257 284 298 
f 284 269 298 
f 269 287 298 
f 287 276 298 
f 260 281 299 
f 281 262 299 
f 286 260 299 
f 262 286 299 
f 256 261 300 
f 268 256 300 
f 261 285 300 
f 285 268 300 
f 264 277 301 
f 277 275 301 
f 265 280 301 
f 280 264 301 
f 295 265 301 
o convex_5
v 0.001527 -0.007288 -0.000469
v 0.006636 -0.003538 0.000047
v 0.006636 -0.003585 0.000047
v 0.001527 -0.005414 0.001500
v 0.001527 -0.004523 -0.000985
v 0.004855 -0.004148 -0.001500
v 0.004105 -0.006210 0.000562
v 0.004386 -0.003538 0.001500
v 0.002652 -0.003538 -0.000047
v 0.004761 -0.005647 -0.000703
v 0.001527 -0.006116 -0.001500
v 0.004386 -0.003538 -0.001500
v 0.001948 -0.006539 0.001313
v 0.005230 -0.004429 0.001313
v 0.001527 -0.004382 0.000750
v 0.003308 -0.006398 -0.000985
v 0.006215 -0.003585 -0.001031
v 0.001527 -0.007241 0.000610
v 0.005793 -0.004851 0.000094
v 0.003777 -0.006539 -0.000094
v 0.006215 -0.003585 0.001031
v 0.003214 -0.005507 0.001500
v 0.004433 -0.005226 -0.001313
v 0.004620 -0.005507 0.001031
v 0.001527 -0.005414 -0.001500
v 0.003402 -0.003538 0.001125
v 0.002558 -0.007007 0.000562
v 0.003261 -0.003538 -0.001031
v 0.002324 -0.006351 -0.001360
v 0.005230 -0.003538 0.001500
v 0.005745 -0.004757 -0.000562
v 0.003496 -0.006023 0.001219
v 0.001527 -0.004242 -0.000422
v 0.005745 -0.004757 0.000562
v 0.002558 -0.007007 -0.000562
v 0.004855 -0.005788 0.000094
v 0.001527 -0.004992 0.001360
v 0.001527 -0.006116 0.001500
v 0.001620 -0.007007 -0.000985
v 0.005511 -0.004617 -0.001031
v 0.005699 -0.003538 -0.001360
v 0.001527 -0.004992 -0.001360
v 0.003214 -0.005507 -0.001500
v 0.002558 -0.007101 0.000047
v 0.002511 -0.006726 0.001031
v 0.003683 -0.006491 -0.000562
v 0.005511 -0.004617 0.001031
v 0.002746 -0.003585 0.000562
v 0.001527 -0.004195 0.000187
v 0.006449 -0.003772 -0.000515
v 0.003824 -0.003538 -0.001360
v 0.004292 -0.005226 0.001360
v 0.003683 -0.006210 0.000985
v 0.004761 -0.005742 0.000562
v 0.004620 -0.005507 -0.001031
v 0.006402 -0.003820 0.000562
v 0.004808 -0.005742 -0.000469
v 0.001527 -0.006867 0.001125
v 0.003496 -0.005882 -0.001313
v 0.005230 -0.004429 -0.001313
v 0.003683 -0.006491 0.000562
v 0.002511 -0.006726 -0.001031
v 0.001667 -0.007335 0.000094
v 0.001527 -0.006632 -0.001313
f 363 340 365 
f 302 305 306 
f 302 306 312 
f 309 303 313 
f 307 312 313 
f 306 305 316 
f 305 302 319 
f 304 303 322 
f 309 305 323 
f 312 306 326 
f 313 312 326 
f 309 310 327 
f 303 309 331 
f 322 303 331 
f 315 322 331 
f 309 323 331 
f 323 314 333 
f 306 316 334 
f 329 306 334 
f 310 329 334 
f 305 309 338 
f 316 305 338 
f 309 327 338 
f 327 316 338 
f 305 319 339 
f 323 305 339 
f 314 323 339 
f 336 302 340 
f 318 332 341 
f 332 311 341 
f 313 303 342 
f 307 313 342 
f 303 318 342 
f 326 306 343 
f 313 326 343 
f 312 307 344 
f 307 324 344 
f 330 312 344 
f 336 321 345 
f 302 336 345 
f 319 328 346 
f 333 314 346 
f 336 317 347 
f 321 336 347 
f 322 315 348 
f 315 325 348 
f 327 310 349 
f 316 327 349 
f 334 316 350 
f 310 334 350 
f 349 310 350 
f 316 349 350 
f 303 304 351 
f 318 303 351 
f 304 320 351 
f 332 318 351 
f 320 332 351 
f 310 309 352 
f 309 313 352 
f 306 329 352 
f 329 310 352 
f 343 306 352 
f 313 343 352 
f 325 315 353 
f 315 331 353 
f 331 323 353 
f 323 333 353 
f 333 325 353 
f 325 333 354 
f 333 346 354 
f 320 335 355 
f 308 337 355 
f 337 320 355 
f 348 325 355 
f 335 348 355 
f 354 308 355 
f 325 354 355 
f 324 341 356 
f 341 311 356 
f 311 347 356 
f 347 317 356 
f 320 304 357 
f 304 322 357 
f 335 320 357 
f 322 348 357 
f 348 335 357 
f 311 332 358 
f 332 320 358 
f 337 321 358 
f 320 337 358 
f 347 311 358 
f 321 347 358 
f 339 319 359 
f 314 339 359 
f 346 314 359 
f 319 346 359 
f 344 324 360 
f 330 344 360 
f 356 317 360 
f 324 356 360 
f 324 307 361 
f 318 341 361 
f 341 324 361 
f 307 342 361 
f 342 318 361 
f 321 337 362 
f 337 308 362 
f 328 345 362 
f 345 321 362 
f 346 328 362 
f 308 354 362 
f 354 346 362 
f 317 336 363 
f 336 340 363 
f 360 317 363 
f 330 360 363 
f 319 302 364 
f 328 319 364 
f 302 345 364 
f 345 328 364 
f 302 312 365 
f 312 330 365 
f 340 302 365 
f 330 363 365 
o convex_6
v 0.005511 -0.003209 0.001500
v 0.004386 -0.003538 -0.001500
v 0.003871 -0.003538 -0.001360
v 0.005324 -0.001897 -0.001500
v 0.004105 -0.001897 0.000562
v 0.007247 -0.001897 0.000187
v 0.006496 -0.003538 -0.000656
v 0.002886 -0.003538 0.000562
v 0.005324 -0.001897 0.001500
v 0.006309 -0.003538 0.000938
v 0.004105 -0.001897 -0.000562
v 0.006449 -0.001944 -0.001360
v 0.006590 -0.001897 0.001266
v 0.003871 -0.003538 0.001360
v 0.002745 -0.003491 -0.000140
v 0.005605 -0.003538 -0.001406
v 0.003308 -0.003491 -0.001031
v 0.004714 -0.001897 0.001266
v 0.007059 -0.001897 -0.000750
v 0.007012 -0.002553 0.000563
v 0.006684 -0.003491 -0.000047
v 0.004714 -0.001897 -0.001266
v 0.004386 -0.003538 0.001500
v 0.006731 -0.002507 -0.001031
v 0.007012 -0.002553 -0.000563
v 0.005980 -0.002225 -0.001500
v 0.005746 -0.003538 0.001360
v 0.003308 -0.003491 0.001031
v 0.006027 -0.002037 0.001500
v 0.002886 -0.003491 -0.000562
v 0.006731 -0.002507 0.001031
v 0.005886 -0.003491 -0.001313
v 0.004011 -0.001897 -0.000094
v 0.007106 -0.002553 0.000047
v 0.004386 -0.001944 -0.001031
v 0.004340 -0.001897 0.000938
v 0.006918 -0.001944 0.000984
v 0.002745 -0.003491 0.000140
v 0.006590 -0.003538 0.000422
v 0.005277 -0.003538 -0.001500
v 0.006355 -0.002319 0.001360
v 0.007247 -0.001944 -0.000187
v 0.006309 -0.003491 -0.000985
v 0.002886 -0.003491 0.000562
v 0.002886 -0.003538 -0.000562
v 0.006027 -0.001897 -0.001500
v 0.006355 -0.002319 -0.001360
f 389 397 412 
f 367 368 369 
f 369 370 371 
f 368 367 372 
f 368 372 373 
f 371 370 374 
f 373 372 375 
f 370 369 376 
f 371 374 378 
f 373 375 379 
f 372 367 381 
f 374 370 383 
f 379 374 383 
f 369 371 384 
f 369 368 387 
f 376 369 387 
f 368 382 387 
f 366 374 388 
f 374 379 388 
f 379 375 388 
f 377 384 389 
f 389 384 390 
f 386 372 390 
f 367 369 391 
f 366 388 392 
f 388 375 392 
f 373 379 393 
f 379 383 393 
f 374 366 394 
f 378 374 394 
f 380 376 395 
f 375 385 396 
f 392 375 396 
f 370 376 398 
f 376 380 398 
f 371 385 399 
f 386 390 399 
f 376 387 400 
f 387 382 400 
f 395 376 400 
f 382 395 400 
f 383 370 401 
f 393 383 401 
f 371 378 402 
f 385 371 402 
f 378 396 402 
f 396 385 402 
f 380 373 403 
f 370 398 403 
f 398 380 403 
f 375 372 404 
f 385 375 404 
f 372 386 404 
f 399 385 404 
f 386 399 404 
f 381 367 405 
f 367 391 405 
f 391 381 405 
f 366 392 406 
f 394 366 406 
f 378 394 406 
f 396 378 406 
f 392 396 406 
f 384 371 407 
f 390 384 407 
f 371 399 407 
f 399 390 407 
f 372 381 408 
f 389 390 408 
f 390 372 408 
f 381 397 408 
f 397 389 408 
f 373 393 409 
f 401 370 409 
f 393 401 409 
f 370 403 409 
f 403 373 409 
f 368 373 410 
f 373 380 410 
f 382 368 410 
f 380 395 410 
f 395 382 410 
f 369 384 411 
f 384 377 411 
f 391 369 411 
f 377 391 411 
f 377 389 412 
f 391 377 412 
f 381 391 412 
f 397 381 412 
o convex_7
v 0.005652 -0.000021 0.001500
v 0.005324 -0.001897 -0.001500
v 0.004902 -0.001897 -0.001360
v 0.006450 -0.001897 0.001360
v 0.007340 -0.000021 -0.000750
v 0.004762 -0.000021 -0.000938
v 0.004152 -0.001897 0.000610
v 0.007199 -0.001897 -0.000515
v 0.007340 -0.000021 0.000750
v 0.006355 -0.000021 -0.001500
v 0.004574 -0.000021 0.000610
v 0.004902 -0.001897 0.001360
v 0.004105 -0.001850 -0.000469
v 0.006543 -0.001897 -0.001313
v 0.007340 -0.001334 0.000562
v 0.006824 -0.000021 0.001313
v 0.005371 -0.000021 -0.001406
v 0.007528 -0.000256 -0.000047
v 0.004480 -0.000021 -0.000234
v 0.004996 -0.000021 0.001172
v 0.006074 -0.001850 0.001500
v 0.006965 -0.001897 0.000938
v 0.007059 -0.001287 -0.001031
v 0.004433 -0.001897 -0.001031
v 0.006824 -0.000021 -0.001313
v 0.004058 -0.001803 0.000140
v 0.004387 -0.001850 0.000985
v 0.007059 -0.001287 0.001031
v 0.006074 -0.001850 -0.001500
v 0.006355 -0.000021 0.001500
v 0.007340 -0.001334 -0.000562
v 0.007293 -0.001850 0.000047
v 0.005324 -0.001897 0.001500
v 0.005652 -0.000021 -0.001500
v 0.007434 -0.001334 -0.000047
v 0.006637 -0.001240 -0.001360
v 0.007528 -0.000021 0.000140
v 0.006637 -0.001240 0.001360
v 0.005043 -0.000068 -0.001219
v 0.005231 -0.000115 0.001360
v 0.004574 -0.000021 -0.000610
v 0.004480 -0.000021 0.000187
v 0.004762 -0.000021 0.000938
v 0.007199 -0.000162 -0.000985
v 0.007199 -0.000162 0.000985
v 0.006965 -0.001897 -0.000938
v 0.004152 -0.001897 -0.000610
v 0.007199 -0.001897 0.000515
v 0.007434 -0.000256 -0.000563
f 443 456 461 
f 415 414 416 
f 413 417 418 
f 415 416 419 
f 416 414 420 
f 417 413 421 
f 418 417 422 
f 413 418 423 
f 419 416 424 
f 420 414 426 
f 421 413 428 
f 418 422 429 
f 423 418 431 
f 413 423 432 
f 416 420 434 
f 415 419 436 
f 422 417 437 
f 419 423 438 
f 431 425 438 
f 419 424 439 
f 416 434 440 
f 434 427 440 
f 414 422 441 
f 426 414 441 
f 428 413 442 
f 413 433 442 
f 413 424 445 
f 424 416 445 
f 433 413 445 
f 416 433 445 
f 414 415 446 
f 422 414 446 
f 415 429 446 
f 429 422 446 
f 420 443 447 
f 427 444 447 
f 444 420 447 
f 435 426 448 
f 422 437 448 
f 437 435 448 
f 441 422 448 
f 426 441 448 
f 417 421 449 
f 421 427 449 
f 427 447 449 
f 447 430 449 
f 433 416 450 
f 440 428 450 
f 416 440 450 
f 428 442 450 
f 442 433 450 
f 429 415 451 
f 418 429 451 
f 415 436 451 
f 436 418 451 
f 424 413 452 
f 413 432 452 
f 439 424 452 
f 432 439 452 
f 431 418 453 
f 425 431 453 
f 423 431 454 
f 438 423 454 
f 431 438 454 
f 423 419 455 
f 432 423 455 
f 419 439 455 
f 439 432 455 
f 437 417 456 
f 435 437 456 
f 443 435 456 
f 427 421 457 
f 421 428 457 
f 440 427 457 
f 428 440 457 
f 420 426 458 
f 426 435 458 
f 443 420 458 
f 435 443 458 
f 436 419 459 
f 418 436 459 
f 419 438 459 
f 438 425 459 
f 453 418 459 
f 425 453 459 
f 434 420 460 
f 427 434 460 
f 444 427 460 
f 420 444 460 
f 430 447 461 
f 447 443 461 
f 417 449 461 
f 449 430 461 
f 456 417 461 
o convex_8
v -0.005086 0.001667 0.001406
v -0.006351 -0.000021 -0.001500
v -0.006492 -0.000021 -0.001453
v -0.006492 0.001761 -0.001360
v -0.007289 -0.000021 0.000844
v -0.004476 -0.000021 -0.000187
v -0.004429 0.001761 -0.000938
v -0.007289 0.001761 0.000187
v -0.005507 -0.000021 0.001453
v -0.006492 0.001761 0.001360
v -0.004194 0.001761 0.000563
v -0.007429 -0.000021 -0.000562
v -0.005273 -0.000021 -0.001360
v -0.005367 0.001761 -0.001500
v -0.004804 -0.000021 0.000985
v -0.006351 -0.000021 0.001500
v -0.007101 0.001291 -0.000985
v -0.007335 0.001338 0.000562
v -0.004101 0.001714 -0.000140
v -0.004710 -0.000021 -0.000844
v -0.005367 0.001761 0.001500
v -0.007523 0.000307 -0.000047
v -0.007242 0.001761 -0.000469
v -0.004523 -0.000021 0.000422
v -0.006961 0.001151 0.001125
v -0.007054 -0.000021 -0.001125
v -0.004617 0.001714 0.001125
v -0.006820 -0.000021 0.001313
v -0.004945 0.001714 -0.001360
v -0.005648 -0.000021 -0.001500
v -0.006117 0.001714 -0.001500
v -0.004194 0.001714 -0.000563
v -0.006117 0.001714 0.001500
v -0.006961 0.001761 0.000985
v -0.007335 0.001338 -0.000562
v -0.007477 -0.000021 0.000422
v -0.005179 -0.000021 0.001313
v -0.007429 0.001338 0.000047
v -0.006679 0.000916 -0.001360
v -0.004945 -0.000021 -0.001125
v -0.006633 0.001291 0.001360
v -0.004101 0.001714 0.000140
v -0.006961 0.001761 -0.000985
v -0.007101 0.001291 0.000985
v -0.005648 -0.000021 0.001500
v -0.004523 0.000026 -0.000469
v -0.007195 0.000214 -0.000985
v -0.004429 0.001761 0.000938
f 482 488 509 
f 464 463 466 
f 466 463 467 
f 468 465 469 
f 466 467 470 
f 468 469 471 
f 468 471 472 
f 464 466 473 
f 467 463 474 
f 465 468 475 
f 470 467 476 
f 466 470 477 
f 468 472 480 
f 467 474 481 
f 472 471 482 
f 469 465 484 
f 476 467 485 
f 472 476 485 
f 464 473 487 
f 482 462 488 
f 466 477 489 
f 475 468 490 
f 475 490 491 
f 474 463 491 
f 463 475 491 
f 490 474 491 
f 475 463 492 
f 465 475 492 
f 468 480 493 
f 481 468 493 
f 482 471 494 
f 477 482 494 
f 471 469 495 
f 469 479 495 
f 473 483 496 
f 473 466 497 
f 466 479 497 
f 483 473 497 
f 462 470 498 
f 470 476 498 
f 488 462 498 
f 476 488 498 
f 479 469 499 
f 469 484 499 
f 496 483 499 
f 484 496 499 
f 497 479 499 
f 483 497 499 
f 463 464 500 
f 478 465 500 
f 464 487 500 
f 487 478 500 
f 492 463 500 
f 465 492 500 
f 481 474 501 
f 468 481 501 
f 490 468 501 
f 474 490 501 
f 489 477 502 
f 486 489 502 
f 494 471 502 
f 477 494 502 
f 471 495 502 
f 467 480 503 
f 480 472 503 
f 485 467 503 
f 472 485 503 
f 465 478 504 
f 484 465 504 
f 478 496 504 
f 496 484 504 
f 479 466 505 
f 466 489 505 
f 489 486 505 
f 495 479 505 
f 486 502 505 
f 502 495 505 
f 470 462 506 
f 477 470 506 
f 462 482 506 
f 482 477 506 
f 480 467 507 
f 467 481 507 
f 493 480 507 
f 481 493 507 
f 487 473 508 
f 478 487 508 
f 473 496 508 
f 496 478 508 
f 476 472 509 
f 472 482 509 
f 488 476 509 
o convex_9
v -0.005413 0.003355 0.001500
v -0.006070 0.001761 -0.001500
v -0.006492 0.001761 -0.001360
v -0.005366 0.001761 0.001500
v -0.003022 0.003402 -0.000563
v -0.006632 0.003402 -0.000515
v -0.007195 0.001761 0.000562
v -0.004147 0.001761 -0.000469
v -0.003257 0.003402 0.000844
v -0.004476 0.003402 -0.001500
v -0.004851 0.001761 -0.001313
v -0.006445 0.003402 0.000844
v -0.004194 0.001761 0.000610
v -0.005835 0.003402 -0.001360
v -0.006492 0.001807 0.001360
v -0.007195 0.001854 -0.000562
v -0.004476 0.003402 0.001500
v -0.002929 0.003355 0.000187
v -0.007007 0.002792 0.000047
v -0.006726 0.002511 -0.001031
v -0.004851 0.001761 0.001313
v -0.003585 0.003355 -0.001125
v -0.006726 0.002511 0.001031
v -0.004429 0.001761 -0.000985
v -0.005929 0.003402 0.001313
v -0.004007 0.003355 0.001360
v -0.005320 0.001807 -0.001500
v -0.005413 0.003355 -0.001500
v -0.006632 0.003402 0.000515
v -0.006070 0.001761 0.001500
v -0.007007 0.002558 0.000562
v -0.007289 0.001761 -0.000140
v -0.004054 0.001807 0.000140
v -0.007007 0.002558 -0.000562
v -0.004429 0.001761 0.000985
v -0.003022 0.003355 0.000563
v -0.003444 0.003355 0.001031
v -0.006351 0.003402 -0.000985
v -0.004007 0.003355 -0.001360
v -0.002929 0.003355 -0.000187
v -0.006960 0.001761 -0.000985
v -0.006960 0.001761 0.000985
v -0.006351 0.002323 -0.001360
v -0.003022 0.003355 -0.000563
v -0.006351 0.002323 0.001360
v -0.007195 0.002229 0.000047
v -0.003444 0.003355 -0.001031
f 553 533 556 
f 512 511 513 
f 512 513 516 
f 513 511 517 
f 514 515 518 
f 515 514 519 
f 517 511 520 
f 518 515 521 
f 513 517 522 
f 515 519 523 
f 510 513 526 
f 518 521 526 
f 514 518 527 
f 513 522 530 
f 519 514 531 
f 517 520 533 
f 510 526 534 
f 526 521 534 
f 521 532 534 
f 526 513 535 
f 518 526 535 
f 513 530 535 
f 511 519 536 
f 520 511 536 
f 519 511 537 
f 523 519 537 
f 521 515 538 
f 515 528 538 
f 513 510 539 
f 516 513 539 
f 532 521 540 
f 521 538 540 
f 538 528 540 
f 512 516 541 
f 522 517 542 
f 527 522 542 
f 528 515 543 
f 530 522 544 
f 527 518 545 
f 522 527 545 
f 544 522 545 
f 544 545 546 
f 518 535 546 
f 535 530 546 
f 530 544 546 
f 545 518 546 
f 515 523 547 
f 523 529 547 
f 543 515 547 
f 529 543 547 
f 519 531 548 
f 531 520 548 
f 536 519 548 
f 520 536 548 
f 514 527 549 
f 542 517 549 
f 527 542 549 
f 529 512 550 
f 512 541 550 
f 541 525 550 
f 543 529 550 
f 525 543 550 
f 524 532 551 
f 516 539 551 
f 539 524 551 
f 540 516 551 
f 532 540 551 
f 511 512 552 
f 512 529 552 
f 529 523 552 
f 537 511 552 
f 523 537 552 
f 517 533 553 
f 514 549 553 
f 549 517 553 
f 532 524 554 
f 510 534 554 
f 534 532 554 
f 539 510 554 
f 524 539 554 
f 516 540 555 
f 540 528 555 
f 541 516 555 
f 525 541 555 
f 528 543 555 
f 543 525 555 
f 531 514 556 
f 520 531 556 
f 533 520 556 
f 514 553 556 
o convex_10
v 0.001901 0.004621 -0.001172
v 0.000213 0.006355 0.001500
v 0.000073 0.006355 0.001500
v 0.000167 0.007199 -0.000985
v 0.001901 0.007199 0.000516
v 0.000073 0.004527 -0.000515
v 0.001901 0.004434 0.001031
v 0.001901 0.006543 -0.001313
v 0.000073 0.005653 -0.001500
v 0.000073 0.004762 0.000938
v 0.000073 0.007434 0.000562
v 0.001901 0.006449 0.001360
v 0.001760 0.004058 0.000047
v 0.001338 0.007340 -0.000562
v 0.001760 0.005324 0.001500
v 0.001901 0.005324 -0.001500
v 0.000073 0.006355 -0.001500
v 0.000120 0.005231 0.001360
v 0.000776 0.007105 0.001031
v 0.001901 0.004105 -0.000515
v 0.000213 0.004809 -0.001031
v 0.000073 0.007528 -0.000094
v 0.000073 0.004527 0.000515
v 0.001901 0.006965 -0.000938
v 0.001854 0.004105 0.000515
v 0.001292 0.007434 0.000047
v 0.000073 0.006824 0.001313
v 0.001854 0.006074 -0.001500
v 0.001901 0.006027 0.001500
v 0.000120 0.005231 -0.001360
v 0.001198 0.006730 -0.001313
v 0.001901 0.007246 -0.000234
v 0.000073 0.005653 0.001500
v 0.001292 0.007059 0.001031
v 0.001901 0.004809 0.001313
v 0.001338 0.007340 0.000562
v 0.000073 0.006824 -0.001313
v 0.001854 0.004387 -0.000985
v 0.001292 0.007059 -0.001031
v 0.000073 0.007434 -0.000562
v 0.000213 0.004433 0.000047
v 0.001245 0.006637 0.001360
v 0.001807 0.004902 -0.001360
v 0.001901 0.006965 0.000937
v 0.000167 0.007199 0.000985
v 0.000073 0.004762 -0.000938
f 577 594 602 
f 557 561 563 
f 561 557 564 
f 562 559 565 
f 559 562 566 
f 565 559 567 
f 563 561 568 
f 558 559 571 
f 564 557 572 
f 572 565 573 
f 565 567 573 
f 566 563 574 
f 557 563 576 
f 569 562 576 
f 573 567 578 
f 566 562 579 
f 561 564 580 
f 563 566 581 
f 576 563 581 
f 569 576 581 
f 566 579 581 
f 579 569 581 
f 578 567 582 
f 570 578 582 
f 559 558 583 
f 567 559 583 
f 564 572 584 
f 572 573 584 
f 563 568 585 
f 558 571 585 
f 564 584 587 
f 584 573 587 
f 561 580 588 
f 580 570 588 
f 582 561 588 
f 570 582 588 
f 559 566 589 
f 571 559 589 
f 566 574 589 
f 574 571 589 
f 575 583 590 
f 574 563 591 
f 571 574 591 
f 563 585 591 
f 585 571 591 
f 561 582 592 
f 582 567 592 
f 573 578 593 
f 587 573 593 
f 557 576 594 
f 586 557 594 
f 577 586 594 
f 560 570 595 
f 580 564 595 
f 570 580 595 
f 564 587 595 
f 593 560 595 
f 587 593 595 
f 570 560 596 
f 578 570 596 
f 560 593 596 
f 593 578 596 
f 562 569 597 
f 579 562 597 
f 569 579 597 
f 583 558 598 
f 558 585 598 
f 585 568 598 
f 568 590 598 
f 590 583 598 
f 572 557 599 
f 565 572 599 
f 586 565 599 
f 557 586 599 
f 568 561 600 
f 590 568 600 
f 561 592 600 
f 592 590 600 
f 567 583 601 
f 583 575 601 
f 575 590 601 
f 592 567 601 
f 590 592 601 
f 562 565 602 
f 576 562 602 
f 565 586 602 
f 586 577 602 
f 594 576 602 
o convex_11
v 0.003355 0.005417 -0.001500
v 0.002042 0.006027 0.001500
v 0.001901 0.006027 0.001500
v 0.003355 0.002933 0.000187
v 0.001901 0.004715 -0.001266
v 0.003402 0.006684 0.000234
v 0.001901 0.007059 -0.000750
v 0.003402 0.004480 0.001500
v 0.001901 0.004340 0.000938
v 0.003402 0.003449 -0.001031
v 0.001901 0.007152 0.000562
v 0.003402 0.005933 0.001312
v 0.001901 0.004105 -0.000562
v 0.001901 0.006027 -0.001500
v 0.003402 0.006355 -0.000984
v 0.003402 0.004480 -0.001500
v 0.003402 0.003449 0.001031
v 0.001948 0.004856 0.001360
v 0.002605 0.007059 -0.000234
v 0.002464 0.006777 0.000985
v 0.003355 0.003027 -0.000562
v 0.002276 0.006449 -0.001313
v 0.001901 0.004012 0.000140
v 0.003355 0.003027 0.000562
v 0.001901 0.005324 -0.001500
v 0.001948 0.006590 0.001266
v 0.003402 0.005370 0.001500
v 0.003073 0.006777 0.000562
v 0.002042 0.007247 0.000047
v 0.003355 0.004012 -0.001360
v 0.003355 0.006637 -0.000562
v 0.001901 0.005324 0.001500
v 0.003402 0.006355 0.000984
v 0.002558 0.006777 -0.000938
v 0.001948 0.004340 -0.000985
v 0.003355 0.004012 0.001360
v 0.003402 0.005840 -0.001359
v 0.002558 0.007012 0.000562
v 0.001901 0.004105 0.000562
v 0.003355 0.002933 -0.000187
v 0.002558 0.007012 -0.000562
v 0.001901 0.006824 -0.001078
v 0.002323 0.006355 0.001360
v 0.003402 0.002933 0.000187
v 0.002886 0.006964 0.000047
v 0.001901 0.006918 0.000985
v 0.003355 0.003449 0.001031
f 638 620 649 
f 607 605 609 
f 604 605 610 
f 605 607 611 
f 608 610 612 
f 609 605 613 
f 610 608 614 
f 611 607 615 
f 607 609 616 
f 608 612 617 
f 617 612 618 
f 616 603 618 
f 612 610 619 
f 611 615 625 
f 607 616 627 
f 616 618 627 
f 605 604 628 
f 604 610 629 
f 610 614 629 
f 609 613 631 
f 612 607 632 
f 618 612 632 
f 607 627 632 
f 627 618 632 
f 608 617 633 
f 610 605 634 
f 605 611 634 
f 611 620 634 
f 614 608 635 
f 622 614 635 
f 608 630 635 
f 617 624 636 
f 607 612 637 
f 615 607 637 
f 612 623 637 
f 623 615 637 
f 619 610 638 
f 610 634 638 
f 634 620 638 
f 603 616 639 
f 617 618 639 
f 618 603 639 
f 616 624 639 
f 624 617 639 
f 631 613 640 
f 622 635 640 
f 635 630 640 
f 625 606 641 
f 611 625 641 
f 606 626 641 
f 626 611 641 
f 615 623 642 
f 606 625 642 
f 625 615 642 
f 609 631 643 
f 631 621 643 
f 633 617 643 
f 621 633 643 
f 636 609 643 
f 617 636 643 
f 616 609 644 
f 624 616 644 
f 609 636 644 
f 636 624 644 
f 614 622 645 
f 628 604 645 
f 622 628 645 
f 604 629 645 
f 629 614 645 
f 612 619 646 
f 623 612 646 
f 626 606 646 
f 619 626 646 
f 606 642 646 
f 642 623 646 
f 630 608 647 
f 621 631 647 
f 608 633 647 
f 633 621 647 
f 640 630 647 
f 631 640 647 
f 613 605 648 
f 605 628 648 
f 628 622 648 
f 640 613 648 
f 622 640 648 
f 620 611 649 
f 626 619 649 
f 611 626 649 
f 619 638 649 
